<svg xmlns="http://www.w3.org/2000/svg" viewBox="0 0 500 500"><g id="freepik--background-complete--inject-8"><g id="freepik--xsrjP0--inject-8"><path d="M46.09,153.35c-.76-.48-1.42-1.17-2.44-1.08-.39,0-.31-.28-.31-.49,0-3.84,0-7.67,0-11.51,0-.28,0-.51.32-.66,2.93-1.48,4.2-4.38,6-6.87a11.46,11.46,0,0,0,2.12-8.7c-.12-.86.28-1.25,1.06-1.42a1.9,1.9,0,0,1,2.19.69,15.48,15.48,0,0,1,1.67,5,18,18,0,0,1-.53,4.31c-.14,1.05-.38,2.09-.58,3.16.25.19.55.09.83.09h9.72c1.36,0,2,.39,2.22,1.3a2.59,2.59,0,0,1-1.41,2.8c-.24.13-.68,0-.71.4s.42.34.65.5c1.17.8,1,2.46-.41,3.42-.32.23-1,.12-1,.6s.58.38.85.65c1,.94.48,2.68-.94,3.39a4,4,0,0,0-.57.22c-.16.11-.31.23,0,.45,1.4,1,1.37,2.4,0,3.41l-.42.31a2.78,2.78,0,0,1-1.71.37H47.43A1.79,1.79,0,0,1,46.09,153.35Z" style="fill:#ebebeb;fill-rule:evenodd"></path><path d="M31.65,146.59c0-2.44,0-4.88,0-7.31,0-.5.05-.74.65-.73q4.47,0,8.92,0c.58,0,.67.19.67.71q0,7.35,0,14.71c0,.62-.17.8-.79.79-2.89,0-5.77,0-8.65,0-.72,0-.81-.24-.81-.87C31.67,151.46,31.65,149,31.65,146.59Z" style="fill:#ebebeb;fill-rule:evenodd"></path></g><g id="freepik--xsrjp0--inject-8"><path d="M463,248.35c-.56-.36-1.06-.88-1.82-.81-.29,0-.23-.21-.23-.37V238.6c0-.21,0-.38.24-.49,2.18-1.1,3.13-3.27,4.46-5.12a8.6,8.6,0,0,0,1.59-6.49c-.1-.64.2-.93.78-1.06a1.46,1.46,0,0,1,1.64.51,11.66,11.66,0,0,1,1.24,3.75,13,13,0,0,1-.4,3.21c-.1.79-.28,1.56-.43,2.36.19.14.42.06.62.07H478c1,0,1.51.29,1.65,1a1.93,1.93,0,0,1-1.05,2.09c-.18.09-.51,0-.53.29s.32.26.48.38c.88.6.72,1.83-.3,2.55-.24.17-.71.09-.72.45s.43.28.63.48a1.62,1.62,0,0,1-.7,2.52,3.07,3.07,0,0,0-.42.17c-.12.08-.24.17,0,.33a1.43,1.43,0,0,1,0,2.55l-.32.22a2,2,0,0,1-1.27.28H464A1.38,1.38,0,0,1,463,248.35Z" style="fill:#ebebeb;fill-rule:evenodd"></path><path d="M452.28,243.31c0-1.82,0-3.64,0-5.45,0-.37,0-.55.49-.55,2.21,0,4.43,0,6.64,0,.44,0,.5.15.5.54q0,5.47,0,11c0,.46-.12.6-.59.59-2.15,0-4.29,0-6.44,0-.54,0-.61-.18-.6-.65C452.29,246.94,452.28,245.12,452.28,243.31Z" style="fill:#ebebeb;fill-rule:evenodd"></path></g><circle cx="386.67" cy="58.12" r="5.62" style="fill:#ebebeb"></circle><path d="M372,70.6A5.62,5.62,0,1,1,366.36,65,5.62,5.62,0,0,1,372,70.6Z" style="fill:#ebebeb"></path><path d="M392.29,83.07a5.62,5.62,0,1,1-5.62-5.62A5.62,5.62,0,0,1,392.29,83.07Z" style="fill:#ebebeb"></path><polygon points="386.23 84.39 364.84 70.58 386.25 57.43 387.09 58.81 367.87 70.61 387.11 83.03 386.23 84.39" style="fill:#ebebeb"></polygon><g id="freepik--aiZGp2--inject-8"><path d="M402.43,121.13a24.73,24.73,0,0,1,1.65,7.54h6.67v-.19c0-.17,0-.34-.05-.51a18,18,0,0,0-.44-2.63,20.6,20.6,0,0,0-1.49-4.11.14.14,0,0,0-.16-.1h-6.18Z" style="fill:#ebebeb"></path><path d="M402.63,138h6.13a.14.14,0,0,0,.15-.1,19.63,19.63,0,0,0,1.83-7s0-.06,0-.08v-.19h-6.56c-.12,0-.11,0-.12.12,0,.53-.07,1.07-.13,1.6a19.61,19.61,0,0,1-.41,2.53,22.36,22.36,0,0,1-.87,3Z" style="fill:#ebebeb"></path><path d="M376.84,139.91l.05.09a18,18,0,0,0,1.74,2.25,16.69,16.69,0,0,0,2.55,2.35,18,18,0,0,0,2.9,1.8,17.79,17.79,0,0,0,3.06,1.19,20.1,20.1,0,0,0,2.56.55l.25,0h.15l.14-.09-.16-.12a19.43,19.43,0,0,1-4.84-4.69,22.68,22.68,0,0,1-2-3.28.13.13,0,0,0-.15-.09h-6.27Z" style="fill:#ebebeb"></path><path d="M383,128.66h8.62v-7.52h-6.73a.12.12,0,0,0-.13.09,20.68,20.68,0,0,0-1.37,4.41A19.34,19.34,0,0,0,383,128Z" style="fill:#ebebeb"></path><path d="M383,130.67c0,.18,0,.36,0,.53,0,.42.07.84.13,1.26.08.58.17,1.15.28,1.72a19.78,19.78,0,0,0,1.12,3.68c0,.08.06.11.15.11h6.91v-7.3Z" style="fill:#ebebeb"></path><path d="M393.53,121.18v7.54h8.41l0-.57c-.05-.42-.08-.84-.15-1.26-.1-.64-.21-1.28-.35-1.91a19.39,19.39,0,0,0-1.21-3.71.14.14,0,0,0-.15-.09h-6.52Z" style="fill:#ebebeb"></path><path d="M393.52,130.77V138h6.72a.14.14,0,0,0,.15-.1,19.37,19.37,0,0,0,1.15-3.8c.12-.67.22-1.34.3-2,.06-.44.07-.89.1-1.33v-.05h-8.31C393.54,130.66,393.52,130.69,393.52,130.77Z" style="fill:#ebebeb"></path><path d="M373.84,128.72h7.06a24.5,24.5,0,0,1,1.64-7.59H376a.13.13,0,0,0-.15.09,18.34,18.34,0,0,0-1.63,4.72,21.58,21.58,0,0,0-.34,2.65Z" style="fill:#ebebeb"></path><path d="M373.83,130.62c0,.17,0,.33,0,.49a17.28,17.28,0,0,0,.23,1.9,18.41,18.41,0,0,0,1.3,4.24c.09.22.2.43.29.65,0,0,.05.07.11.07h6.56l-.24-.66a22.8,22.8,0,0,1-.87-3.44,22.06,22.06,0,0,1-.3-2.56c0-.2,0-.41,0-.61s0-.08-.07-.08h-7Z" style="fill:#ebebeb"></path><path d="M377,119.21v0h6.27a.15.15,0,0,0,.15-.09,21.41,21.41,0,0,1,3.06-4.54,17.89,17.89,0,0,1,2.35-2.17c.42-.32.86-.62,1.29-.94l.07,0-.08-.06a.93.93,0,0,1,0-.13A18.45,18.45,0,0,0,377,119.21Z" style="fill:#ebebeb"></path><path d="M394.73,148.09a.4.4,0,0,0,.17,0,15.65,15.65,0,0,0,2-.39,17.73,17.73,0,0,0,3.58-1.33,18.37,18.37,0,0,0,3.65-2.39,16.94,16.94,0,0,0,2.2-2.2,17.3,17.3,0,0,0,1.37-1.9s0,0,0,0H401.9c-.08,0-.11,0-.15.1a22,22,0,0,1-2.11,3.44,20.8,20.8,0,0,1-2.48,2.74,18.34,18.34,0,0,1-2.38,1.92Z" style="fill:#ebebeb"></path><path d="M394.8,111.44l.87.64a22.07,22.07,0,0,1,2.79,2.59,20.05,20.05,0,0,1,2.92,4.17l.15.29a.18.18,0,0,0,.09.06h5.93a18.34,18.34,0,0,0-12.68-7.89l0,.07Z" style="fill:#ebebeb"></path><path d="M385.54,139.92a19.93,19.93,0,0,0,2.85,3.84,17.92,17.92,0,0,0,3.25,2.76v-6.6Z" style="fill:#ebebeb"></path><path d="M393.53,139.92v6.48a18.83,18.83,0,0,0,5.85-6.48Z" style="fill:#ebebeb"></path><path d="M385.74,119.18h5.85V113a17.73,17.73,0,0,0-3.29,2.75A20.47,20.47,0,0,0,385.74,119.18Z" style="fill:#ebebeb"></path><path d="M393.53,113.2v6h5.62A17.92,17.92,0,0,0,393.53,113.2Z" style="fill:#ebebeb"></path></g><ellipse cx="322.08" cy="32.02" rx="18.17" ry="18.45" transform="matrix(0.94, -0.33, 0.33, 0.94, 7.35, 107.58)" style="fill:#ebebeb"></ellipse><path d="M307.88,31.79A14.47,14.47,0,0,0,322,46.39a14.11,14.11,0,0,0,14.28-14.14,14.45,14.45,0,0,0-14.1-14.6A14.13,14.13,0,0,0,307.88,31.79Z" style="fill:#fff"></path><path d="M311.84,31.85A10.43,10.43,0,0,0,322,42.38a10.17,10.17,0,0,0,10.3-10.19,10.42,10.42,0,0,0-10.16-10.53A10.18,10.18,0,0,0,311.84,31.85Z" style="fill:#ebebeb"></path><path d="M315.85,31.92A6.35,6.35,0,0,0,322,38.33a6.2,6.2,0,0,0,6.27-6.21,6.35,6.35,0,0,0-6.19-6.41A6.2,6.2,0,0,0,315.85,31.92Z" style="fill:#fff"></path><path d="M319.31,32a2.82,2.82,0,0,0,2.75,2.85,2.76,2.76,0,0,0,2.79-2.76,2.83,2.83,0,0,0-2.75-2.86A2.76,2.76,0,0,0,319.31,32Z" style="fill:#ebebeb"></path><polygon points="322.22 32.08 341.28 22.06 341.13 21.79 322.08 31.8 322.22 32.08" style="fill:#ebebeb"></polygon><polygon points="342.4 22.55 342.33 22.52 341.11 22.14 343.52 20.89 344.82 21.28 342.4 22.55" style="fill:#ebebeb"></polygon><path d="M343.81,19.34l-.43,1.27L341,21.87a5.49,5.49,0,0,0,.42-1.26Z" style="fill:#ebebeb"></path><polygon points="321.5 31.71 322 32.61 323.34 32.5 322.46 31.78 322.37 30.65 321.5 31.71" style="fill:#ebebeb"></polygon><rect x="244.34" y="36.19" width="3.56" height="22.88" style="fill:#ebebeb"></rect><rect x="250.46" y="39.99" width="3.56" height="19.08" style="fill:#ebebeb"></rect><rect x="256.58" y="46.92" width="3.56" height="12.14" style="fill:#ebebeb"></rect><rect x="262.69" y="39.65" width="3.56" height="19.41" style="fill:#ebebeb"></rect><rect x="268.81" y="42.84" width="3.56" height="16.22" style="fill:#ebebeb"></rect><rect x="274.92" y="33" width="3.56" height="26.07" style="fill:#ebebeb"></rect><path d="M242.28,31.41l0,6.91,0,6.92,0,13.82-.09-.11c8.64,0,17.29,0,25.93,0l7.21,0,6.39.06-6.39.07-7.21,0c-8.64,0-17.29.05-25.93,0h-.09v-.12l0-13.82,0-6.92Z" style="fill:#ebebeb"></path><path d="M241.5,33a2.36,2.36,0,0,1,.78-.13,2.18,2.18,0,0,1,.79.13,2.42,2.42,0,0,1-.79.13A2.36,2.36,0,0,1,241.5,33Z" style="fill:#ebebeb"></path><path d="M241.5,35.74a2.36,2.36,0,0,1,.78-.13,2.42,2.42,0,0,1,.79.13,2.18,2.18,0,0,1-.79.13A2.36,2.36,0,0,1,241.5,35.74Z" style="fill:#ebebeb"></path><path d="M241.5,38.49a2.13,2.13,0,0,1,.78-.13,2.18,2.18,0,0,1,.79.13,2.17,2.17,0,0,1-.79.12A2.12,2.12,0,0,1,241.5,38.49Z" style="fill:#ebebeb"></path><path d="M241.5,41.23a2.36,2.36,0,0,1,.78-.13,2.42,2.42,0,0,1,.79.13,2.42,2.42,0,0,1-.79.13A2.36,2.36,0,0,1,241.5,41.23Z" style="fill:#ebebeb"></path><path d="M241.5,44a2.13,2.13,0,0,1,.78-.13,2.18,2.18,0,0,1,.79.13,2.17,2.17,0,0,1-.79.12A2.35,2.35,0,0,1,241.5,44Z" style="fill:#ebebeb"></path><path d="M241.5,46.72a2.36,2.36,0,0,1,.78-.13,2.42,2.42,0,0,1,.79.13,2.42,2.42,0,0,1-.79.13A2.36,2.36,0,0,1,241.5,46.72Z" style="fill:#ebebeb"></path><path d="M241.5,49.46a2.12,2.12,0,0,1,.78-.12,2.17,2.17,0,0,1,.79.12,2.18,2.18,0,0,1-.79.13A2.13,2.13,0,0,1,241.5,49.46Z" style="fill:#ebebeb"></path><path d="M241.5,52.21a2.36,2.36,0,0,1,.78-.13,2.42,2.42,0,0,1,.79.13,2.42,2.42,0,0,1-.79.13A2.36,2.36,0,0,1,241.5,52.21Z" style="fill:#ebebeb"></path><path d="M241.5,55a2.36,2.36,0,0,1,.78-.13,2.42,2.42,0,0,1,.79.13,2.18,2.18,0,0,1-.79.13A2.13,2.13,0,0,1,241.5,55Z" style="fill:#ebebeb"></path><path d="M353.72,153.12l-.41-.29c.2-.27.38-.54.57-.81l.41.28C354.11,152.57,353.92,152.85,353.72,153.12Z" style="fill:#ebebeb"></path><path d="M355.41,150.6l-.42-.27c.35-.56.7-1.14,1-1.72l.43.25Q356,149.74,355.41,150.6Zm2-3.51-.44-.24c.32-.59.63-1.18.92-1.79l.45.23C358.09,145.89,357.78,146.5,357.46,147.09Zm1.8-3.64-.45-.21c.27-.61.54-1.22.8-1.85l.46.19C359.81,142.21,359.54,142.83,359.26,143.45Zm1.55-3.76-.47-.17c.23-.63.46-1.26.67-1.9l.48.16C361.27,138.42,361,139.06,360.81,139.69Zm1.28-3.85-.48-.14c.19-.65.37-1.29.54-1.95l.49.13C362.46,134.54,362.28,135.19,362.09,135.84Zm1-3.93-.49-.11c.15-.66.28-1.31.41-2l.49.09C363.39,130.58,363.26,131.25,363.11,131.91Zm.75-4-.5-.07c.1-.67.19-1.34.27-2l.5.06Q364,126.9,363.86,127.91Zm.47-4-.5,0c.06-.67.1-1.34.14-2l.5,0C364.43,122.52,364.39,123.2,364.33,123.87Zm.2-4.06H364c0-.29,0-.57,0-.85s0-.78,0-1.17h.5c0,.39,0,.79,0,1.18S364.54,119.53,364.53,119.81Zm-.58-4c0-.67-.08-1.34-.14-2l.49,0c.06.67.11,1.34.15,2Zm-.36-4c-.08-.67-.18-1.34-.28-2l.49-.08c.11.67.2,1.34.29,2Zm-.64-4c-.13-.66-.27-1.32-.42-2l.49-.12c.15.66.29,1.33.42,2Zm-.91-3.93c-.17-.65-.36-1.3-.56-1.94l.48-.15c.2.65.39,1.3.56,2ZM360.86,100q-.33-1-.69-1.89l.47-.18c.24.63.47,1.27.69,1.91Zm-1.45-3.76c-.26-.62-.53-1.24-.81-1.85l.45-.21c.28.62.56,1.24.82,1.86Zm-1.69-3.66c-.31-.6-.62-1.19-1-1.78l.44-.24c.33.59.64,1.19,1,1.79Zm-2-3.53c-.34-.58-.7-1.15-1.06-1.72l.42-.27c.36.57.72,1.15,1.07,1.73Zm-2.18-3.39c-.38-.55-.78-1.1-1.18-1.64l.4-.3c.41.55.8,1.1,1.19,1.65Zm-2.41-3.23c-.42-.53-.85-1-1.28-1.55l.38-.33c.44.52.87,1,1.29,1.57Zm-2.62-3.06c-.45-.49-.91-1-1.39-1.46l.36-.35c.48.48.94,1,1.4,1.47Zm-2.82-2.87-1.48-1.36.33-.37c.5.45,1,.9,1.49,1.37Zm-3-2.67c-.52-.43-1-.84-1.58-1.25l.31-.4c.54.41,1.07.84,1.59,1.27Zm-72.81-1.42-.3-.4c.53-.41,1.08-.81,1.63-1.21l.29.41Q270.72,71.78,269.92,72.39Zm69.62-1c-.54-.39-1.09-.77-1.65-1.15l.27-.41c.57.37,1.12.76,1.67,1.15Zm-66.33-1.3-.28-.42c.57-.37,1.14-.74,1.72-1.09l.26.43C274.34,69.33,273.77,69.69,273.21,70.06Zm63-.93c-.57-.35-1.15-.69-1.73-1l.25-.43c.58.33,1.16.68,1.74,1ZM276.65,68l-.25-.44c.59-.33,1.19-.65,1.79-1l.23.45Q277.52,67.47,276.65,68Zm56.05-.82c-.59-.32-1.19-.62-1.8-.91l.22-.45c.61.29,1.21.6,1.81.91Zm-52.48-1-.21-.45c.61-.29,1.23-.57,1.85-.84l.2.45C281.44,65.53,280.83,65.81,280.22,66.1Zm48.85-.71q-.92-.4-1.86-.78l.19-.47c.63.25,1.25.52,1.87.79Zm-45.15-.9-.18-.46c.63-.25,1.26-.49,1.9-.72l.17.47C285.17,64,284.54,64.24,283.92,64.49Zm41.41-.6-1.91-.65.16-.47c.64.2,1.28.42,1.92.65Zm-37.61-.75-.15-.48c.64-.2,1.29-.4,1.94-.58l.14.48C289,62.74,288.36,62.94,287.72,63.14Zm33.77-.48c-.64-.18-1.29-.36-1.94-.52l.12-.48c.66.16,1.31.33,2,.52Zm-29.89-.61-.12-.48q1-.24,2-.45l.11.49C292.91,61.75,292.25,61.89,291.6,62.05Zm26-.36c-.6-.13-1.2-.24-1.81-.35l-.16,0,.08-.49.17,0c.61.1,1.22.22,1.83.35Zm-22-.45-.09-.5,2-.3.07.49C296.87,61,296.21,61.12,295.55,61.24ZM313.61,61c-.66-.09-1.33-.18-2-.25l.06-.5c.67.08,1.34.16,2,.26Zm-14.07-.29-.05-.5c.67-.07,1.35-.13,2-.17l0,.5C300.88,60.57,300.21,60.63,299.54,60.7Zm10.07-.14c-.67-.05-1.34-.09-2-.11V60c.68,0,1.36.06,2,.11Zm-6.05-.13v-.5c.6,0,1.2,0,1.8,0h.23v.5h-.23C304.75,60.41,304.16,60.41,303.56,60.43Z" style="fill:#ebebeb"></path><path d="M267.53,74.3l-.32-.38c.25-.22.51-.43.77-.64l.32.39Z" style="fill:#ebebeb"></path><path d="M369.69,125.73l-1.56-.28.09-.49,1.56.28Zm-3.53-.63-2-.36.09-.49,2,.35Z" style="fill:#ebebeb"></path><path d="M353.77,85.46l-.29-.41,1.64-1.14.29.41Zm3.28-2.29-.29-.41,1.65-1.14.28.41Z" style="fill:#ebebeb"></path><path d="M271.76,70.74l-1.14-1.64.41-.29,1.14,1.65Zm-2.28-3.28-1.14-1.65.41-.28,1.14,1.64Z" style="fill:#ebebeb"></path><path d="M316.06,61.14l-.49-.09.35-2,.49.09Zm.71-3.94-.49-.09.35-2,.49.09Z" style="fill:#ebebeb"></path></g><g id="freepik--Floor--inject-8"><path d="M39.28,464.53c135-.61,286.44-.62,421.44,0-135,.62-286.44.61-421.44,0Z" style="fill:#263238"></path></g><g id="freepik--Device--inject-8"><path d="M320,82.4H151a17.26,17.26,0,0,0-17.09,17.42v348A17.27,17.27,0,0,0,151,465.21H320a17.29,17.29,0,0,0,17.12-17.42v-348A17.28,17.28,0,0,0,320,82.4ZM326.42,437c0,9.16-6.86,16.57-15.31,16.57H159.88c-8.48,0-15.33-7.41-15.33-16.57V113c0-18.66,6.85-19.57,15.33-19.57h30.3c1.76,0,3.2,2,3.2,4.48V99c0,5.81,3.18,5.83,7.08,5.83h70c3.94,0,7.1,0,7.1-5.83V97.92c0-2.48,1.42-4.48,3.21-4.48h30.29c8.45,0,15.31,2.48,15.31,19.57Z" style="fill:#37474f"></path><path d="M326.39,113V437.26c0,9.16-6.87,16.58-15.33,16.58H159.74c-8.49,0-15.35-7.42-15.35-16.58V113c0-18.67,6.86-19.58,15.35-19.58H190c1.76,0,3.2,2,3.2,4.49V99c0,5.81,3.19,5.83,7.1,5.83h70.1c3.94,0,7.09,0,7.09-5.83V97.93c0-2.48,1.42-4.49,3.21-4.49h30.32C319.52,93.44,326.39,95.93,326.39,113Z" style="fill:#fff"></path><path d="M326.38,113v24.2h-182V113c0-18.67,6.87-19.58,15.35-19.58h30.32c1.76,0,3.2,2,3.2,4.49V99c0,5.81,3.18,5.83,7.08,5.83h70.1c3.94,0,7.1,0,7.1-5.83V97.93c0-2.48,1.42-4.49,3.22-4.49h30.3C319.52,93.44,326.38,95.93,326.38,113Z" style="fill:#ebebeb"></path><polygon points="162.81 125.41 157.43 120.37 162.81 115.33 163.64 116.22 159.21 120.37 163.64 124.52 162.81 125.41" style="fill:#fff"></polygon><path d="M312.29,117.23a1.06,1.06,0,1,1-2.12,0,1.06,1.06,0,1,1,2.12,0Z" style="fill:#fff"></path><path d="M312.29,121a1.06,1.06,0,1,1-1.06-1A1.05,1.05,0,0,1,312.29,121Z" style="fill:#fff"></path><path d="M312.29,124.76a1.06,1.06,0,1,1-1.06-1.06A1.05,1.05,0,0,1,312.29,124.76Z" style="fill:#fff"></path><g id="freepik--u5Zjqx--inject-8"><path d="M184.81,100.73l-.29.29-.17.16a4,4,0,0,0-5.64,0l-.16-.17-.29-.29h0l0,0,.37-.33a4.78,4.78,0,0,1,.86-.54,4.14,4.14,0,0,1,1.14-.38,5,5,0,0,1,.56-.08h.5l.39,0a4.77,4.77,0,0,1,1,.25,4.66,4.66,0,0,1,1.37.8l.31.28Z" style="fill:#fff"></path><path d="M179.64,102.1l-.47-.45a3.33,3.33,0,0,1,4.72,0l-.47.46a2.68,2.68,0,0,0-3.78,0Z" style="fill:#fff"></path><path d="M183,102.57l-.46.46a1.36,1.36,0,0,0-1-.41,1.4,1.4,0,0,0-1,.41l-.46-.46A2,2,0,0,1,183,102.57Z" style="fill:#fff"></path><path d="M182,103.44a.42.42,0,0,1-.42.42.42.42,0,0,1,0-.83A.42.42,0,0,1,182,103.44Z" style="fill:#fff"></path></g><circle cx="157.46" cy="101.61" r="1.21" style="fill:#fff"></circle><path d="M160.05,101.61a1.21,1.21,0,1,1,1.21,1.21A1.21,1.21,0,0,1,160.05,101.61Z" style="fill:#fff"></path><path d="M163.85,101.61a1.21,1.21,0,1,1,1.21,1.21A1.21,1.21,0,0,1,163.85,101.61Z" style="fill:#fff"></path><circle cx="168.86" cy="101.61" r="1.21" style="fill:#fff"></circle><path d="M171.45,101.61a1.21,1.21,0,1,1,1.21,1.21A1.21,1.21,0,0,1,171.45,101.61Z" style="fill:#fff"></path><path d="M312.74,104.25H302.9V99.69h9.84Zm-9.32-.51h8.8V100.2h-8.8Z" style="fill:#fff"></path><rect x="303.73" y="100.47" width="6.33" height="3" style="fill:#fff"></rect><rect x="312.74" y="100.75" width="0.87" height="2.43" style="fill:#fff"></rect><polygon points="172.04 434.02 170.66 434.02 170.66 440.37 168.07 440.37 168.07 437.13 163.49 437.13 163.49 440.37 160.91 440.37 160.91 434.02 159.52 434.02 165.78 427.55 172.04 434.02" style="fill:#ebebeb"></polygon><rect x="296.17" y="427.55" width="15.09" height="2.16" style="fill:#ebebeb"></rect><rect x="296.17" y="432.88" width="15.09" height="2.16" style="fill:#ebebeb"></rect><rect x="296.17" y="438.21" width="15.09" height="2.16" style="fill:#ebebeb"></rect><polygon points="239.68 433.1 235.39 437.68 231.1 433.1 231.86 432.39 235.39 436.16 238.92 432.39 239.68 433.1" style="fill:#ebebeb"></polygon><path d="M235.39,442.41a7.79,7.79,0,1,1,7.79-7.79A7.8,7.8,0,0,1,235.39,442.41Zm0-14.55a6.76,6.76,0,1,0,6.76,6.76A6.76,6.76,0,0,0,235.39,427.86Z" style="fill:#ebebeb"></path><rect x="171.65" y="114.44" width="127.49" height="12.43" style="opacity:0.1"></rect><path d="M220.56,123.42l-1,.76-1.87-2.46-.68-.9a1.26,1.26,0,0,0,.39-.22,1.61,1.61,0,0,0,.52-.67l.72,1Z" style="fill:#fff"></path><path d="M218.58,117.63a2.74,2.74,0,1,0-.89,4.09,2.45,2.45,0,0,0,.38-.24,2.87,2.87,0,0,0,.57-.59A2.75,2.75,0,0,0,218.58,117.63Zm-1.18,3a1.26,1.26,0,0,1-.39.22,1.61,1.61,0,0,1-1.9-.52,1.64,1.64,0,1,1,2.81-.37A1.61,1.61,0,0,1,217.4,120.6Z" style="fill:#fff"></path><path d="M225.73,122a.49.49,0,0,1,.69-.07,3.05,3.05,0,0,0,1.8.73,2,2,0,0,0,1.18-.35.86.86,0,0,0,.41-.68.53.53,0,0,0-.09-.3.82.82,0,0,0-.28-.28,3.89,3.89,0,0,0-1.29-.45h0a4.84,4.84,0,0,1-1.22-.36,2.05,2.05,0,0,1-.88-.74,1.46,1.46,0,0,1-.21-.77,1.75,1.75,0,0,1,.75-1.38,2.79,2.79,0,0,1,1.63-.5,3.7,3.7,0,0,1,2.06.75.48.48,0,0,1,.13.67.48.48,0,0,1-.67.15,2.67,2.67,0,0,0-1.52-.61,1.77,1.77,0,0,0-1,.32.75.75,0,0,0-.36.6.5.5,0,0,0,.06.26,1,1,0,0,0,.26.25,3.14,3.14,0,0,0,1.18.41h0a5.84,5.84,0,0,1,1.3.4,2.19,2.19,0,0,1,.94.78,1.56,1.56,0,0,1,.23.8,1.83,1.83,0,0,1-.81,1.47,3,3,0,0,1-1.75.53,4.06,4.06,0,0,1-2.41-.94A.5.5,0,0,1,225.73,122Z" style="fill:#fff"></path><path d="M231.8,121.25a2.34,2.34,0,0,1,2.3-2.36,2.26,2.26,0,0,1,2.27,2.19v0a.28.28,0,0,1,0,.09.45.45,0,0,1-.49.37h-3a1.27,1.27,0,0,0,.32.63,1.52,1.52,0,0,0,1.89.18.55.55,0,0,1,.71,0,.44.44,0,0,1,0,.61,2.42,2.42,0,0,1-1.69.62A2.34,2.34,0,0,1,231.8,121.25Zm1-.46h2.67a1.53,1.53,0,0,0-1.39-1A1.33,1.33,0,0,0,232.82,120.79Z" style="fill:#fff"></path><path d="M241.86,121.26v1.85a.5.5,0,0,1-.5.5.52.52,0,0,1-.49-.4,2.19,2.19,0,0,1-2.86-.29,2.47,2.47,0,0,1,0-3.32,2.13,2.13,0,0,1,2.86-.29.52.52,0,0,1,.49-.42.51.51,0,0,1,.5.51Zm-1,0a1.39,1.39,0,0,0-.37-1,1.18,1.18,0,0,0-1.75,0,1.49,1.49,0,0,0,0,1.94,1.22,1.22,0,0,0,1.75,0A1.39,1.39,0,0,0,240.86,121.26Z" style="fill:#fff"></path><path d="M246.61,119.39a.5.5,0,0,1-.5.51.91.91,0,0,0-.56.17,1.61,1.61,0,0,0-.44.46,2.8,2.8,0,0,0-.38.79v1.79a.51.51,0,0,1-.52.5.5.5,0,0,1-.5-.5v-3.72a.5.5,0,0,1,.5-.49.51.51,0,0,1,.52.49v.07a.9.9,0,0,1,.2-.19,2,2,0,0,1,1.18-.37A.49.49,0,0,1,246.61,119.39Z" style="fill:#fff"></path><path d="M247.28,121.26a2.41,2.41,0,0,1,2.4-2.37,2.5,2.5,0,0,1,1.5.52.51.51,0,0,1,.1.7.49.49,0,0,1-.7.1,1.53,1.53,0,0,0-.9-.31,1.41,1.41,0,0,0-1.4,1.36,1.39,1.39,0,0,0,1.4,1.35,1.54,1.54,0,0,0,.9-.3.5.5,0,1,1,.6.8,2.62,2.62,0,0,1-1.5.5A2.39,2.39,0,0,1,247.28,121.26Z" style="fill:#fff"></path><path d="M254.05,123.09a.52.52,0,0,1-.53.52.54.54,0,0,1-.5-.38.59.59,0,0,1,0-.14v-5.56a.53.53,0,0,1,1.05,0v1.64a2.15,2.15,0,0,1,1-.28,2.06,2.06,0,0,1,2.05,2.07v2.13a.52.52,0,1,1-1,0V121a1,1,0,1,0-2,0Z" style="fill:#fff"></path><rect x="154.44" y="171.65" width="161.89" height="136.26" transform="translate(470.77 479.55) rotate(180)" style="fill:#ebebeb;opacity:0.30000000000000004"></rect><rect x="169.23" y="292.13" width="4.2" height="4.2" style="fill:#FFC727"></rect><rect x="176.34" y="292.13" width="45.97" height="1.24" style="fill:#455a64"></rect><rect x="176.34" y="295.09" width="29.71" height="1.24" style="fill:#455a64"></rect><path d="M164.39,195.48c23.67-.17,47.33-.13,71-.2s47.33,0,71,.2c-23.67.18-47.33.13-71,.2S188.06,195.66,164.39,195.48Z" style="fill:#455a64"></path><path d="M164.39,211.94c23.67-.17,47.33-.13,71-.2s47.33,0,71,.2c-23.67.17-47.33.13-71,.2S188.06,212.11,164.39,211.94Z" style="fill:#455a64"></path><path d="M164.39,228.39c23.67-.17,47.33-.12,71-.2,23.67.07,47.33,0,71,.2-23.67.18-47.33.13-71,.21C211.72,228.52,188.06,228.57,164.39,228.39Z" style="fill:#455a64"></path><path d="M164.39,244.85c23.67-.17,47.33-.13,71-.2s47.33,0,71,.2c-23.67.17-47.33.13-71,.2S188.06,245,164.39,244.85Z" style="fill:#455a64"></path><path d="M164.39,261.31c23.67-.18,47.33-.13,71-.21,23.67.08,47.33,0,71,.21-23.67.17-47.33.13-71,.2S188.06,261.48,164.39,261.31Z" style="fill:#455a64"></path><path d="M193,184.78c.21,15.38.15,30.76.24,46.13-.08,15.38,0,30.75-.24,46.13-.21-15.38-.16-30.75-.24-46.13C192.82,215.54,192.77,200.16,193,184.78Z" style="fill:#455a64"></path><path d="M217.53,184.78c.21,15.38.16,30.76.24,46.13-.08,15.38,0,30.75-.24,46.13-.21-15.38-.15-30.75-.24-46.13C217.38,215.54,217.32,200.16,217.53,184.78Z" style="fill:#455a64"></path><path d="M242.09,184.78c.2,15.38.15,30.76.24,46.13-.09,15.38,0,30.75-.24,46.13-.21-15.38-.16-30.75-.25-46.13C241.93,215.54,241.88,200.16,242.09,184.78Z" style="fill:#455a64"></path><path d="M266.64,184.78c.21,15.38.15,30.76.24,46.13-.08,15.38,0,30.75-.24,46.13-.21-15.38-.16-30.75-.24-46.13C266.48,215.54,266.43,200.16,266.64,184.78Z" style="fill:#455a64"></path><path d="M291.19,184.78c.21,15.38.16,30.76.24,46.13-.08,15.38,0,30.75-.24,46.13-.21-15.38-.15-30.75-.24-46.13C291,215.54,291,200.16,291.19,184.78Z" style="fill:#455a64"></path><path d="M168,185.79c.16,15.2.29,30.41.31,45.62l.14,45.63-.45-.38,69.2.1,34.6.07,34.61.21-34.61.2-34.6.08-69.2.09h-.46V277l.15-45.63C167.68,216.2,167.81,201,168,185.79Z" style="fill:#455a64"></path><rect x="184.43" y="256.7" width="17.1" height="20.01" style="fill:#FFC727"></rect><rect x="184.43" y="256.7" width="17.1" height="20.01" style="fill:#fff;opacity:0.6000000000000001"></rect><rect x="196.46" y="256.7" width="5.07" height="20.01" style="fill:#fff;opacity:0.5"></rect><rect x="208.98" y="228.23" width="17.1" height="48.47" style="fill:#FFC727"></rect><rect x="208.98" y="228.23" width="17.1" height="48.47" style="fill:#fff;opacity:0.6000000000000001"></rect><rect x="221.01" y="228.23" width="5.07" height="48.47" style="fill:#fff;opacity:0.5"></rect><rect x="233.54" y="212.14" width="17.1" height="64.56" style="fill:#FFC727"></rect><rect x="233.54" y="212.14" width="17.1" height="64.56" style="fill:#fff;opacity:0.6000000000000001"></rect><rect x="245.57" y="212.14" width="5.07" height="64.56" style="fill:#fff;opacity:0.5"></rect><rect x="258.09" y="221.64" width="17.1" height="55.07" style="fill:#FFC727"></rect><rect x="258.09" y="221.64" width="17.1" height="55.07" style="fill:#fff;opacity:0.6000000000000001"></rect><rect x="270.12" y="221.64" width="5.07" height="55.07" style="fill:#fff;opacity:0.5"></rect><rect x="282.64" y="195.68" width="17.1" height="81.02" style="fill:#FFC727"></rect><rect x="282.64" y="195.68" width="17.1" height="81.02" style="fill:#fff;opacity:0.6000000000000001"></rect><rect x="294.67" y="195.68" width="5.07" height="81.02" style="fill:#fff;opacity:0.5"></rect><polygon points="193.19 257.33 191.65 256.06 215.16 227.48 240.74 211.03 266.15 220.46 359.63 116.75 361.11 118.09 266.72 222.81 240.98 213.25 216.51 228.99 193.19 257.33" style="fill:#455a64"></polygon><polygon points="363.64 122.73 366.13 111.03 354.75 114.72 363.64 122.73" style="fill:#455a64"></polygon><path d="M196.46,258.22a4,4,0,1,1-4-4.05A4,4,0,0,1,196.46,258.22Z" style="fill:#FFC727"></path><rect x="154.44" y="318.64" width="93.17" height="97.31" style="fill:#ebebeb;opacity:0.6000000000000001"></rect><rect x="174.78" y="398.73" width="4.15" height="4.15" style="fill:#FFC727"></rect><rect x="181.81" y="398.73" width="45.45" height="1.23" style="fill:#455a64"></rect><rect x="181.81" y="401.66" width="29.37" height="1.23" style="fill:#455a64"></rect><path d="M165.25,338.26c11.92-.11,23.85-.08,35.77-.12s23.85,0,35.78.12c-11.93.11-23.85.08-35.78.12S177.17,338.37,165.25,338.26Z" style="fill:#455a64"></path><path d="M165.25,348.34c11.92-.11,23.85-.08,35.77-.12s23.85,0,35.78.12c-11.93.11-23.85.08-35.78.12S177.17,348.45,165.25,348.34Z" style="fill:#455a64"></path><path d="M165.25,358.42c11.92-.11,23.85-.08,35.77-.12s23.85,0,35.78.12c-11.93.11-23.85.08-35.78.12S177.17,358.53,165.25,358.42Z" style="fill:#455a64"></path><path d="M165.25,368.5c11.92-.11,23.85-.08,35.77-.12s23.85,0,35.78.12c-11.93.11-23.85.08-35.78.12S177.17,368.61,165.25,368.5Z" style="fill:#455a64"></path><path d="M165.25,378.58c11.92-.11,23.85-.08,35.77-.12s23.85,0,35.78.12c-11.93.11-23.85.08-35.78.12S177.17,378.69,165.25,378.58Z" style="fill:#455a64"></path><path d="M179.65,331.71c.11,9.41.08,18.83.12,28.25s0,18.84-.12,28.26c-.1-9.42-.08-18.84-.12-28.26S179.55,341.12,179.65,331.71Z" style="fill:#455a64"></path><path d="M192,331.71c.11,9.41.08,18.83.13,28.25s0,18.84-.13,28.26c-.1-9.42-.07-18.84-.12-28.26S191.92,341.12,192,331.71Z" style="fill:#455a64"></path><path d="M204.4,331.71c.1,9.41.08,18.83.12,28.25s0,18.84-.12,28.26c-.11-9.42-.08-18.84-.12-28.26S204.29,341.12,204.4,331.71Z" style="fill:#455a64"></path><path d="M216.77,331.71c.11,9.41.08,18.83.12,28.25s0,18.84-.12,28.26c-.1-9.42-.08-18.84-.12-28.26S216.67,341.12,216.77,331.71Z" style="fill:#455a64"></path><path d="M229.14,331.71c.11,9.41.08,18.83.13,28.25s0,18.84-.13,28.26c-.1-9.42-.08-18.84-.12-28.26S229,341.12,229.14,331.71Z" style="fill:#455a64"></path><path d="M167.05,371.27c2.18,0,3.48-10.24,6.58-10.24s3.42,7.47,6,7.47,2.53-13.12,6-13.12,2.68,5.32,6.34,5.32,2.28-12.36,6.11-12.36,2.28,17,6.27,17c2.52,0,3.5-5.41,6.51-5.41,2,0,3.17,2.71,5.78,2.71s3.17-10.4,6.43-10.4,3.63,6.15,6,6.15,3.26-10.08,7.66-10.08v39.88H167.05Z" style="fill:#FFC727;opacity:0.5"></path><path d="M167.05,371.76v-1c.66,0,1.57-2.4,2.24-4.14,1.14-3,2.32-6.1,4.34-6.1s2.9,2.27,3.75,4.27c.66,1.57,1.35,3.2,2.27,3.2s1.52-3.15,2-5.45c.84-3.78,1.71-7.67,4-7.67,2,0,2.82,1.53,3.52,2.88s1.27,2.44,2.82,2.44,2-2.89,2.5-5.68c.62-3.29,1.27-6.68,3.61-6.68s2.91,4.28,3.54,8.8c.51,3.67,1.14,8.23,2.73,8.23.95,0,1.72-1.13,2.55-2.32,1-1.45,2.13-3.09,4-3.09a4.65,4.65,0,0,1,2.79,1.32,4.84,4.84,0,0,0,3,1.39c.9,0,1.72-2.48,2.39-4.47,1-2.92,2-5.94,4-5.94s3.06,2,3.95,3.7c.65,1.26,1.27,2.46,2.07,2.46s1.47-1.92,2.16-3.61c1.18-2.88,2.64-6.47,5.5-6.47v1c-2.2,0-3.47,3.12-4.59,5.87-1,2.35-1.72,4.21-3.07,4.21s-2.15-1.45-2.94-3-1.63-3.16-3.08-3.16-2.29,2.8-3.12,5.27c-.91,2.75-1.71,5.13-3.31,5.13a5.78,5.78,0,0,1-3.6-1.59,3.83,3.83,0,0,0-2.18-1.12c-1.32,0-2.25,1.36-3.16,2.68s-1.89,2.73-3.35,2.73c-2.44,0-3.05-4.4-3.7-9.07-.49-3.54-1.1-8-2.57-8s-2.13,3.13-2.65,5.88c-.64,3.34-1.24,6.48-3.46,6.48s-3-1.57-3.69-3-1.22-2.35-2.65-2.35-2.35,3.83-3,6.9c-.78,3.48-1.39,6.22-3,6.22s-2.35-1.84-3.18-3.79-1.55-3.68-2.84-3.68-2.5,3-3.43,5.47C169.18,369.66,168.38,371.76,167.05,371.76Z" style="fill:#FFC727"></path><path d="M167.05,332.32c.08,9.32.15,18.63.15,27.95l.08,28-.23-.23,34.87.06,17.44,0,17.44.13-17.44.12-17.44.05-34.87.06h-.23v-.23l.07-28C166.9,351,167,341.64,167.05,332.32Z" style="fill:#455a64"></path><rect x="255.24" y="318.64" width="61.09" height="97.31" style="fill:#ebebeb;opacity:0.30000000000000004"></rect><path d="M291.92,337.26l-6.14,21.49v22.34a22.34,22.34,0,0,1,0-44.68A22.59,22.59,0,0,1,291.92,337.26Z" style="fill:#a6a6a6"></path><path d="M299,376.74a22.13,22.13,0,0,1-13.23,4.35V358.75Z" style="fill:#fff"></path><path d="M308.13,358.75a22.28,22.28,0,0,1-9.12,18l-13.23-18,17.38-14.05A22.31,22.31,0,0,1,308.13,358.75Z" style="fill:#37474f"></path><path d="M308.13,337.47l-17.38,14L296.89,330A22.38,22.38,0,0,1,308.13,337.47Z" style="fill:#FFC727"></path><rect x="264.98" y="398.73" width="4.15" height="4.15" style="fill:#a6a6a6"></rect><rect x="272.02" y="398.73" width="30.03" height="1.23" style="fill:#455a64"></rect><rect x="272.02" y="401.66" width="13.94" height="1.23" style="fill:#455a64"></rect><path d="M244.93,97.41h-19.1a1.18,1.18,0,0,1-1.18-1.18h0a1.18,1.18,0,0,1,1.18-1.18h19.1a1.18,1.18,0,0,1,1.18,1.18h0A1.18,1.18,0,0,1,244.93,97.41Z" style="fill:#263238"></path></g><g id="freepik--chart-2--inject-8"><path d="M457.27,137v85.77H345.78V218.7a5.4,5.4,0,0,1-1.56.22,6.28,6.28,0,0,1-1.24-.13,5.8,5.8,0,0,1-1.11.11,5.28,5.28,0,0,1-1.55-.23,6,6,0,0,1-1.58.21,6.1,6.1,0,0,1-1.9-.31,6.82,6.82,0,0,1-1.74.3h-.19a5.31,5.31,0,0,1-5.26-4.64,6.18,6.18,0,0,1-.65-2.78,6.29,6.29,0,0,1,6.29-6.28,6.4,6.4,0,0,1,1.76.25,6,6,0,0,1,1.69-.25,6.24,6.24,0,0,1,1.56.2,5.85,5.85,0,0,1,1.69-.25,5.68,5.68,0,0,1,1.24.14,5.11,5.11,0,0,1,2.55.09v-2.86a5.54,5.54,0,0,1-1.63.24,6.36,6.36,0,0,1-1.24-.13,5.7,5.7,0,0,1-1.1.11,5.28,5.28,0,0,1-1.55-.23,6.4,6.4,0,0,1-1.58.21,6.15,6.15,0,0,1-1.71-.25,6.4,6.4,0,0,1-1.76.25,6.28,6.28,0,0,1-6.27-6.26,6.11,6.11,0,0,1,.44-2.3,5.89,5.89,0,0,1,5.83-5.15,5.66,5.66,0,0,1,1.71.26,6.1,6.1,0,0,1,1.76-.26,6.24,6.24,0,0,1,1.56.2,5.84,5.84,0,0,1,1.68-.25,5.61,5.61,0,0,1,1.24.14,5.12,5.12,0,0,1,2.62.11v-3a5.54,5.54,0,0,1-2,.35,5.61,5.61,0,0,1-1.24-.13,5.08,5.08,0,0,1-1.1.12,5,5,0,0,1-1.55-.24,6,6,0,0,1-3.43-.08,5.29,5.29,0,0,1-7-5.78,5.29,5.29,0,0,1,4.74-7.64h2.38l.48.1h.05a6.42,6.42,0,0,1,1.16-.11,5.83,5.83,0,0,0,3.24,0,5.67,5.67,0,0,1,1.24.13,5.08,5.08,0,0,1,1.1-.12,5,5,0,0,1,1.85.35v-3a5.4,5.4,0,0,1-1.56.22,6.28,6.28,0,0,1-1.24-.13,5.8,5.8,0,0,1-1.11.11,5.28,5.28,0,0,1-1.55-.23,6,6,0,0,1-1.58.21,6.15,6.15,0,0,1-1.71-.25,6.28,6.28,0,0,1-7.49-3.47l-.44-.53-.09-1.7c0-.17,0-.34,0-.52a8,8,0,0,1,.51-2.85,6.82,6.82,0,0,1,2.59-3.3,6.58,6.58,0,0,1,3.39-1.09h.18a4.87,4.87,0,0,1,1.48.22,6.06,6.06,0,0,1,1.6-.22,6.24,6.24,0,0,1,1.56.2,5.85,5.85,0,0,1,1.69-.25,5.68,5.68,0,0,1,1.24.14,5.11,5.11,0,0,1,2.55.09v-2.88a5.84,5.84,0,0,1-1.73.26,5.61,5.61,0,0,1-1.24-.13,5.1,5.1,0,0,1-1.11.12,5,5,0,0,1-1.56-.24,5.89,5.89,0,0,1-1.57.21,6,6,0,0,1-1.74-.26,6.51,6.51,0,0,1-1.76.25,6.36,6.36,0,0,1-4.47-1.85c-.08-.09-.17-.18-.25-.28h-.49v-.66a5.37,5.37,0,0,1-.52-4.53,5.6,5.6,0,0,1-.11-1.09,5.3,5.3,0,0,1,5.3-5.3h1.56a4.83,4.83,0,0,1,1.21.15,5.95,5.95,0,0,1,2.85.07,5.77,5.77,0,0,1,1.67-.25,5.67,5.67,0,0,1,1.24.13,5,5,0,0,1,1.1-.12,5.09,5.09,0,0,1,1.62.26V137Z" style="fill:#fff"></path><path d="M457.27,137c0,.27.28,85.79.27,86,0,.09-111.65.07-111.76.14h-.41V218.7l.53.39a6.47,6.47,0,0,1-3,.11h.16a6.28,6.28,0,0,1-2.86-.13h.23a6.37,6.37,0,0,1-3.72-.1H337a6.55,6.55,0,0,1-2.53.3c-2.66-.07-5.12-2.82-5.17-4.85a6.73,6.73,0,0,1,7.91-9.44h-.25a6.57,6.57,0,0,1,3.49-.06h-.24a6.16,6.16,0,0,1,3.16-.12h-.2a6,6,0,0,1,2.79.09l-.61.45v-2.86l.61.45a5.27,5.27,0,0,1-2.33.2l-.77-.08H343a6.23,6.23,0,0,1-2.88-.13h.26a6.55,6.55,0,0,1-3.54,0h.26a6.79,6.79,0,0,1-8.18-9,6.41,6.41,0,0,1,8.15-5.17h-.29a6.6,6.6,0,0,1,3.58-.06h-.26a6.27,6.27,0,0,1,3.16-.11h-.2a11.67,11.67,0,0,1,1.44-.13,5.72,5.72,0,0,1,1.42.25l-.62.46v-3l.64.44a6.14,6.14,0,0,1-3.47.24h.2a5.94,5.94,0,0,1-2.9-.14h.27a6.53,6.53,0,0,1-3.69-.09h.29a5.76,5.76,0,0,1-7.55-6.29l0,.27a5.81,5.81,0,0,1,5.88-8.28h1.73l.48.11h0c-.32,0,.69-.07.65-.07a5.55,5.55,0,0,1,2.18.19h-.23a6.26,6.26,0,0,1,3.13-.13h-.18a5.69,5.69,0,0,1,3.19.26l-.57.39v-3l.54.4a6.61,6.61,0,0,1-3,.09h.16a11.49,11.49,0,0,1-1.44.11c-.25,0-1.9-.28-1.19-.24a6.44,6.44,0,0,1-3.51,0h.22c-3.05,1.08-7-1-7.9-3.61l-.44-.53-.09-.1v-.13l-.1-1.84c-.45-4.59,4-9.17,8.64-7.78H337a6.35,6.35,0,0,1,3.35,0h-.2a6.11,6.11,0,0,1,3.12-.11h-.16a5.91,5.91,0,0,1,2.74.1l-.48.35v-2.88l.47.34a6.39,6.39,0,0,1-3.16.14h.16a5.89,5.89,0,0,1-2.86-.14h.2a6.31,6.31,0,0,1-3.5-.06h.19a6.64,6.64,0,0,1-6.84-2l.27.13c-.17,0-.65,0-.83,0v-1l.05.18a5.72,5.72,0,0,1-.55-4.82v.17a5.67,5.67,0,0,1,5.24-6.76,12.63,12.63,0,0,1,3.13.15h-.15a6.9,6.9,0,0,1,3,.07h-.17a6.14,6.14,0,0,1,3.07-.13H343a5.78,5.78,0,0,1,2.89.16l-.41.29v-4c27.92.06,83.87.19,111.79.31Zm0,0c.06-.21-112.76.81-111.19,0,0,.34,0,3.88,0,4.08l-.41-.13a5.57,5.57,0,0,0-2.66-.12,5.49,5.49,0,0,0-2.87.14,6.23,6.23,0,0,0-2.88-.08c-1.86-.3-4.06-.37-5.65.8a5.11,5.11,0,0,0-1.95,5.17,5.05,5.05,0,0,0,.48,4.3l.05.08V152l-.34-.34h.65a5.81,5.81,0,0,0,2.9,1.88,6,6,0,0,0,3.42,0,5.61,5.61,0,0,0,3.32.05,5.49,5.49,0,0,0,2.7.13,5.87,5.87,0,0,0,3.29-.26v3.86a5.69,5.69,0,0,0-1.64-.33c-.39,0-.91.09-1.3.12a5.36,5.36,0,0,0-2.89.12,5.82,5.82,0,0,0-3.07,0,6.31,6.31,0,0,0-7.74,5.28,15.85,15.85,0,0,0,0,3.58l-.09-.23.44.53a.28.28,0,0,1,.06.09,5.92,5.92,0,0,0,7,3.24.22.22,0,0,1,.22,0,5.64,5.64,0,0,0,3.18,0l.12,0a6.25,6.25,0,0,0,2.62.1c.38.05.94.11,1.32.12a6.32,6.32,0,0,0,1.82-.36v4.15a5.8,5.8,0,0,0-1.91-.54,13,13,0,0,0-1.52.11,5.41,5.41,0,0,0-2.85.14,6.29,6.29,0,0,0-2.73-.11l-.62-.12h.09a30.66,30.66,0,0,0-3.2.08,4.88,4.88,0,0,0-3.52,6.93l.06.12,0,.14a4.89,4.89,0,0,0,3.93,5.47,4.83,4.83,0,0,0,2.58-.24,5.57,5.57,0,0,0,3.45.08,5.45,5.45,0,0,0,2.69.14,5.72,5.72,0,0,0,3.62-.44c0,.91,0,3.41,0,4.33a5,5,0,0,0-2.4-.36,5.66,5.66,0,0,1-.81.07,5.23,5.23,0,0,0-2.8.14,5.72,5.72,0,0,0-3.33.07l-.15-.05a5.46,5.46,0,0,0-6.93,4.61c-1.84,4.3,2.54,9.08,7,7.67a.27.27,0,0,1,.26,0,5.61,5.61,0,0,0,3.17,0,5.7,5.7,0,0,0,2.66.15c.42,0,1,.13,1.41.12a6.32,6.32,0,0,0,1.91-.4V206a5.82,5.82,0,0,0-1.74-.37c-.34,0-.83,0-1.17.1h-.14a5.32,5.32,0,0,0-2.88.12,5.65,5.65,0,0,0-3.26,0,5.86,5.86,0,0,0-7,8.28,5,5,0,0,0,6.64,4l.13,0,.12,0a5.59,5.59,0,0,0,3.36.07l.11,0a6.42,6.42,0,0,0,2.62.11,6,6,0,0,0,2.6-.08l.53-.16v4.62c-2.4-1.07,111.53,0,111.08-.27-.54,1.68.09-85.86,0-85.5Z" style="fill:#263238"></path><rect x="350.78" y="158.17" width="101.48" height="11.03" style="fill:#ebebeb"></rect><rect x="354.46" y="161.3" width="44.62" height="4.77" style="fill:#455a64"></rect><path d="M336.57,164a1.29,1.29,0,0,1-2.57.13h0c0-.1,0-.2,0-.3a3,3,0,0,1,.19-1.09,1.81,1.81,0,0,1,.68-.9,1.48,1.48,0,0,1,.79-.25.29.29,0,0,1,.31.28.31.31,0,0,1-.29.31.84.84,0,0,0-.49.15,1,1,0,0,0-.34.37.83.83,0,0,1-.07.13,1.45,1.45,0,0,1,.51-.1A1.28,1.28,0,0,1,336.57,164Zm-.59,0a.7.7,0,1,0-1.39,0,.7.7,0,1,0,1.39,0Z" style="fill:#263238"></path><path d="M337.4,163.46a2.18,2.18,0,0,1,.36-1.27,1.18,1.18,0,0,1,1-.59,1.19,1.19,0,0,1,1,.59,2.26,2.26,0,0,1,.36,1.27,2.28,2.28,0,0,1-.36,1.27,1.21,1.21,0,0,1-1,.58,1.19,1.19,0,0,1-1-.58A2.21,2.21,0,0,1,337.4,163.46Zm2.09,0a1.72,1.72,0,0,0-.26-.94.6.6,0,0,0-.49-.33.65.65,0,0,0-.5.33,1.72,1.72,0,0,0-.26.94,1.74,1.74,0,0,0,.26.94.67.67,0,0,0,.5.33.63.63,0,0,0,.49-.33A1.74,1.74,0,0,0,339.49,163.46Z" style="fill:#263238"></path><path d="M341.11,162.52h0a.89.89,0,0,1,.87-.95.88.88,0,0,1,.87.94h0a.9.9,0,0,1-.88,1A.89.89,0,0,1,341.11,162.52Zm1.27,0h0c0-.3-.17-.54-.41-.54s-.39.24-.39.53h0c0,.3.17.54.4.54S342.38,162.81,342.38,162.52Zm-.67,2.48,2.44-3.33a.19.19,0,0,1,.18-.09.21.21,0,0,1,.21.2.22.22,0,0,1-.05.14l-2.43,3.32a.21.21,0,0,1-.19.1.2.2,0,0,1-.2-.21A.25.25,0,0,1,341.71,165Zm1.64-.58h0a.87.87,0,1,1,1.74,0h0a.87.87,0,1,1-1.74,0Zm1.27,0h0c0-.3-.17-.54-.4-.54s-.4.24-.4.53h0c0,.3.17.54.41.54S344.62,164.7,344.62,164.42Z" style="fill:#263238"></path><rect x="350.78" y="141.98" width="101.48" height="11.03" style="fill:#ebebeb"></rect><rect x="354.46" y="145.11" width="22" height="4.77" style="fill:#FFC727"></rect><path d="M336,146.88a1.28,1.28,0,0,1,.39.92,1.3,1.3,0,0,1-.39.93,1.29,1.29,0,0,1-.93.39,1.32,1.32,0,0,1-.93-.39.31.31,0,0,1,0-.42.3.3,0,0,1,.43,0,.69.69,0,0,0,.5.21.72.72,0,0,0,0-1.43.26.26,0,0,1-.22-.1h0a.31.31,0,0,1,0-.43l.54-.55h-.86a.29.29,0,0,1-.29-.3.3.3,0,0,1,.29-.3h1.57a.3.3,0,0,1,.3.3.33.33,0,0,1,0,.14.35.35,0,0,1-.05.08l-.67.69A1,1,0,0,1,336,146.88Z" style="fill:#263238"></path><path d="M337.23,147.27a2.17,2.17,0,0,1,.36-1.26,1.18,1.18,0,0,1,1-.59,1.19,1.19,0,0,1,1,.59,2.4,2.4,0,0,1,0,2.53,1.22,1.22,0,0,1-1,.59,1.2,1.2,0,0,1-1-.59A2.18,2.18,0,0,1,337.23,147.27Zm2.09,0a1.83,1.83,0,0,0-.25-.94.62.62,0,0,0-.5-.32.63.63,0,0,0-.5.32,1.74,1.74,0,0,0-.26.94,1.72,1.72,0,0,0,.26.94.65.65,0,0,0,.5.33.63.63,0,0,0,.5-.33A1.81,1.81,0,0,0,339.32,147.27Z" style="fill:#263238"></path><path d="M340.94,146.33h0a.88.88,0,0,1,.87-.94.87.87,0,0,1,.87.93h0a.87.87,0,1,1-1.74,0Zm1.27,0h0c0-.29-.17-.54-.41-.54s-.39.25-.39.53h0c0,.31.17.54.4.54S342.21,146.62,342.21,146.33Zm-.67,2.48,2.44-3.32a.18.18,0,0,1,.18-.1.21.21,0,0,1,.21.21.24.24,0,0,1-.05.14l-2.43,3.32a.22.22,0,0,1-.19.09.2.2,0,0,1-.2-.2A.29.29,0,0,1,341.54,148.81Zm1.64-.58h0a.87.87,0,1,1,1.74,0h0a.87.87,0,1,1-1.74,0Zm1.27,0h0c0-.3-.17-.54-.4-.54s-.4.24-.4.53h0c0,.3.17.54.41.54S344.45,148.52,344.45,148.23Z" style="fill:#263238"></path><rect x="350.78" y="206.73" width="101.48" height="11.03" style="fill:#ebebeb"></rect><rect x="354.46" y="209.86" width="76.14" height="4.77" style="fill:#FFC727"></rect><path d="M334,211.45a1.29,1.29,0,0,1,1.29-1.29,1.27,1.27,0,0,1,1.27,1.15h0c0,.1,0,.21,0,.31a3.14,3.14,0,0,1-.18,1.08,1.87,1.87,0,0,1-.69.91,1.48,1.48,0,0,1-.79.25.3.3,0,0,1-.31-.28.31.31,0,0,1,.29-.31.92.92,0,0,0,.49-.15,1,1,0,0,0,.34-.37l.07-.14a1.26,1.26,0,0,1-.51.11A1.28,1.28,0,0,1,334,211.45Zm.59,0a.7.7,0,1,0,1.39,0,.7.7,0,1,0-1.39,0Z" style="fill:#263238"></path><path d="M337.4,212a2.18,2.18,0,0,1,.36-1.27,1.18,1.18,0,0,1,1-.59,1.19,1.19,0,0,1,1,.59,2.26,2.26,0,0,1,.36,1.27,2.23,2.23,0,0,1-.36,1.26,1.19,1.19,0,0,1-1,.59,1.18,1.18,0,0,1-1-.59A2.15,2.15,0,0,1,337.4,212Zm2.09,0a1.72,1.72,0,0,0-.26-.94.6.6,0,0,0-.49-.33.65.65,0,0,0-.5.33,1.72,1.72,0,0,0-.26.94,1.74,1.74,0,0,0,.26.94.66.66,0,0,0,.5.32.61.61,0,0,0,.49-.32A1.74,1.74,0,0,0,339.49,212Z" style="fill:#263238"></path><path d="M341.11,211.08h0a.89.89,0,0,1,.87-.95.88.88,0,0,1,.87.94h0a.9.9,0,0,1-.88,1A.89.89,0,0,1,341.11,211.08Zm1.27,0h0c0-.3-.17-.54-.41-.54s-.39.24-.39.53h0c0,.3.17.54.4.54S342.38,211.37,342.38,211.08Zm-.67,2.48,2.44-3.33a.19.19,0,0,1,.18-.09.21.21,0,0,1,.21.2.2.2,0,0,1-.05.14l-2.43,3.32a.21.21,0,0,1-.19.1.2.2,0,0,1-.2-.21A.25.25,0,0,1,341.71,213.56Zm1.64-.58h0a.87.87,0,1,1,1.74,0h0a.87.87,0,1,1-1.74,0Zm1.27,0h0c0-.3-.17-.54-.4-.54s-.4.24-.4.53h0c0,.3.17.54.41.54S344.62,213.26,344.62,213Z" style="fill:#263238"></path><rect x="350.78" y="190.54" width="101.48" height="11.03" style="fill:#ebebeb"></rect><rect x="354.46" y="193.67" width="68.43" height="4.77" style="fill:#455a64"></rect><path d="M336.47,196.42a1.27,1.27,0,1,1-2-1,.87.87,0,0,1-.18-.53.88.88,0,0,1,.88-.86.87.87,0,0,1,.7,1.39A1.26,1.26,0,0,1,336.47,196.42Zm-.57,0a.69.69,0,1,0-.69.69A.7.7,0,0,0,335.9,196.42Zm-1-1.58a.3.3,0,0,0,.3.31.31.31,0,0,0,.3-.31.31.31,0,0,0-.3-.29A.3.3,0,0,0,334.91,194.84Z" style="fill:#263238"></path><path d="M337.33,195.83a2.34,2.34,0,0,1,.36-1.27,1.2,1.2,0,0,1,1-.58,1.18,1.18,0,0,1,1,.58,2.26,2.26,0,0,1,.35,1.27,2.28,2.28,0,0,1-.35,1.27,1.21,1.21,0,0,1-1,.58,1.22,1.22,0,0,1-1-.58A2.37,2.37,0,0,1,337.33,195.83Zm2.1,0a1.72,1.72,0,0,0-.26-.94.54.54,0,0,0-1,0,1.83,1.83,0,0,0,0,1.88.54.54,0,0,0,1,0A1.72,1.72,0,0,0,339.43,195.83Z" style="fill:#263238"></path><path d="M341,194.89h0a.9.9,0,0,1,.88-.95.88.88,0,0,1,.87.94h0a.88.88,0,1,1-1.75,0Zm1.28,0h0c0-.3-.17-.54-.41-.54s-.4.24-.4.53h0c0,.3.17.54.41.54S342.32,195.18,342.32,194.89Zm-.67,2.48,2.43-3.33a.22.22,0,0,1,.4.11.26.26,0,0,1-.05.14L342,197.62a.25.25,0,0,1-.19.09.21.21,0,0,1-.21-.21A.19.19,0,0,1,341.65,197.37Zm1.63-.58h0a.9.9,0,0,1,.88-.95.89.89,0,0,1,.87.94h0a.9.9,0,0,1-.88.95A.89.89,0,0,1,343.28,196.79Zm1.28,0h0c0-.3-.17-.54-.41-.54s-.4.24-.4.53h0c0,.3.17.54.41.54S344.56,197.07,344.56,196.79Z" style="fill:#263238"></path><rect x="350.78" y="174.36" width="101.48" height="11.03" style="fill:#ebebeb"></rect><rect x="354.46" y="177.48" width="58.09" height="4.77" style="fill:#FFC727"></rect><path d="M336.37,178.19,335,181.32a.27.27,0,0,1-.27.18l-.11,0a.31.31,0,0,1-.16-.38l1.15-2.72h-1.37a.3.3,0,0,1-.29-.3.29.29,0,0,1,.29-.29h1.87l.11.05h0l0,0s0,0,0,0l0,0v0l0,0v0s0,0,0,0a.24.24,0,0,1,0,.12A.43.43,0,0,1,336.37,178.19Z" style="fill:#263238"></path><path d="M337,179.64a2.25,2.25,0,0,1,.36-1.26,1.11,1.11,0,0,1,2,0,2.4,2.4,0,0,1,0,2.53,1.11,1.11,0,0,1-2,0A2.26,2.26,0,0,1,337,179.64Zm2.09,0a1.74,1.74,0,0,0-.25-.94.62.62,0,0,0-.49-.32.63.63,0,0,0-.51.32,1.74,1.74,0,0,0-.25.94,1.72,1.72,0,0,0,.25.94.65.65,0,0,0,.51.33.63.63,0,0,0,.49-.33A1.72,1.72,0,0,0,339.09,179.64Z" style="fill:#263238"></path><path d="M340.71,178.71h0a.88.88,0,1,1,1.75,0v0a.88.88,0,1,1-1.75,0Zm1.27,0h0c0-.3-.17-.55-.4-.55s-.4.25-.4.53v0c0,.3.17.54.41.54S342,179,342,178.71Zm-.66,2.47,2.43-3.32a.19.19,0,0,1,.18-.1.21.21,0,0,1,.21.21.24.24,0,0,1-.05.14l-2.43,3.32a.21.21,0,0,1-.18.09.2.2,0,0,1-.21-.2A.24.24,0,0,1,341.32,181.18Zm1.63-.58h0a.88.88,0,1,1,1.75,0h0a.9.9,0,0,1-.88.95A.89.89,0,0,1,343,180.6Zm1.28,0h0c0-.29-.17-.54-.41-.54s-.4.25-.4.53h0c0,.3.17.54.41.54S344.23,180.89,344.23,180.6Z" style="fill:#263238"></path></g><g id="freepik--chart-1--inject-8"><path d="M172,77.66a49.82,49.82,0,0,1-31.8,46.27l-4.67,1.79-.43-1.13-.89.34A49.56,49.56,0,1,1,116.46,29.1h1v-1h5A49.51,49.51,0,0,1,172,77.66Z" style="fill:#fff"></path><path d="M172,77.66c-.06,22.67-15.05,41.45-36.41,48.22l-.16.07-.06-.16-.44-1.13c-12.3,5.9-29.88,4.76-42.46-2.21a49.83,49.83,0,0,1,25-93.61l-.26.26V27.84a94.49,94.49,0,0,1,10.63.37c24.78,2.6,44.49,24.49,44.19,49.45Zm0,0c.19-21-14.11-40.63-34.17-46.9a47.53,47.53,0,0,0-10.07-2.13,88.63,88.63,0,0,0-10.32-.27l.26-.26c0,.31,0,1,0,1.27a62.86,62.86,0,0,0-11.12,1,49.75,49.75,0,0,0-36.77,33c-4.75,14.67-2.31,31.57,6.9,44,13.85,19,37.08,25,58.56,17.12l.42,1.13-.22-.1c21.5-6.63,36.32-25.16,36.53-47.9Z" style="fill:#263238"></path><path d="M132.43,120.27a44.56,44.56,0,1,1-16-86.17V78.66Z" style="fill:#FFC727"></path><path d="M167,77.66a44.55,44.55,0,0,1-28.59,41.61l-16-41.61V33.1A44.52,44.52,0,0,1,167,77.66Z" style="fill:#455a64"></path><path d="M96.52,54.3l.21.05a2,2,0,0,1,1.6,1.94A2,2,0,0,1,95,57.86a1.89,1.89,0,0,1-.65-2.07A2,2,0,0,1,96,54.33l.1,0Z" style="fill:#fff"></path><path d="M96.49,74.64V71.28c0-.17,0-.17-.16-.17s-.25,0-.25.24c0,2.19,0,4.37,0,6.56a1.1,1.1,0,0,1-.43.89.64.64,0,0,1-.46.17.82.82,0,0,0-.27,0c-.39,0-.82-.42-.84-.8,0-.17,0-.35,0-.52v-6.3a.48.48,0,0,1,0-.12c0-.09,0-.13-.13-.12H91.7c-.18,0-.18,0-.13-.18l2-6.81c.23-.78.45-1.55.67-2.33,0-.14,0-.14-.1-.14-.33,0-.27,0-.36.26-.48,1.69-1,3.38-1.45,5.08a.83.83,0,0,1-.61.65.9.9,0,0,1-.91-.28.75.75,0,0,1-.16-.78c.17-.61.35-1.22.53-1.83.37-1.31.74-2.61,1.13-3.91a2.75,2.75,0,0,1,1.35-1.74,2.24,2.24,0,0,1,1.1-.3h3a2.55,2.55,0,0,1,2.3,1.38,5.68,5.68,0,0,1,.49,1.38c.47,1.62.93,3.24,1.4,4.86a1.71,1.71,0,0,1,0,.71.7.7,0,0,1-.53.48.86.86,0,0,1-1.13-.61c-.48-1.75-1-3.49-1.49-5.23a.14.14,0,0,0-.16-.13c-.3,0-.3,0-.22.29.72,2.52,1.45,5,2.17,7.56L101,71c0,.16,0,.16-.12.16H98.66c-.16,0-.16,0-.16.17,0,2.24,0,4.49,0,6.73a1,1,0,0,1-.53.9.4.4,0,0,1-.24,0h-.25a1,1,0,0,1-1-1Z" style="fill:#fff"></path><path d="M90.17,90.31a2.91,2.91,0,0,1-5.81.3s0,0,0,0c0-.23,0-.45,0-.68a7,7,0,0,1,.42-2.46,4.2,4.2,0,0,1,1.54-2,3.49,3.49,0,0,1,1.8-.57.68.68,0,0,1,.7.64.71.71,0,0,1-.65.7,2.18,2.18,0,0,0-1.13.33,2.45,2.45,0,0,0-.75.84,3,3,0,0,0-.16.31,2.91,2.91,0,0,1,4.07,2.67Zm-1.33,0a1.58,1.58,0,1,0-3.16,0,1.58,1.58,0,0,0,3.16,0Z" style="fill:#fff"></path><path d="M96.47,88.12a2.94,2.94,0,0,1,.87,2.11,3,3,0,0,1-.87,2.1,3,3,0,0,1-2.1.88h0a2.89,2.89,0,0,1-2.09-.88.65.65,0,0,1,0-1,.69.69,0,0,1,1,0,1.61,1.61,0,0,0,2.29,0A1.63,1.63,0,0,0,96,90.23a1.58,1.58,0,0,0-.48-1.15,1.56,1.56,0,0,0-1.14-.47,1.6,1.6,0,0,0-1.15.47.67.67,0,0,1-1,0l-.13-.15s0,0,0,0a.11.11,0,0,0,0-.06s0-.06,0-.08,0,0,0,0a.34.34,0,0,1,0-.2l.36-3.11a.71.71,0,0,1,.3-.48l0,0s0,0,0,0a.78.78,0,0,1,.31-.07h3.54a.68.68,0,1,1,0,1.36h-3l-.14,1.19a2.76,2.76,0,0,1,.8-.11A2.94,2.94,0,0,1,96.47,88.12Z" style="fill:#fff"></path><path d="M99.18,86.89v0a2,2,0,0,1,2-2.14,2,2,0,0,1,2,2.12v0a2,2,0,1,1-4,0Zm2.89,0v0c0-.67-.38-1.22-.92-1.22s-.9.55-.9,1.2v0c0,.69.38,1.23.92,1.23S102.07,87.53,102.07,86.89Zm-1.51,5.6L106.07,85a.44.44,0,0,1,.4-.22.47.47,0,0,1,.48.47.52.52,0,0,1-.1.31l-5.51,7.52a.48.48,0,0,1-.89-.25A.53.53,0,0,1,100.56,92.49Zm3.7-1.31v0a2,2,0,1,1,3.95,0v0a2,2,0,0,1-2,2.14A2,2,0,0,1,104.26,91.18Zm2.89,0v0c0-.67-.39-1.23-.93-1.23s-.9.56-.9,1.2v0c0,.68.39,1.22.93,1.22S107.15,91.83,107.15,91.18Z" style="fill:#fff"></path><g id="freepik--1jhwpttif--inject-8"><path d="M139.9,61.22a2.91,2.91,0,0,1,.22-.78,2.5,2.5,0,0,1,2.31-1.55c1.54,0,3.08,0,4.62,0a2.6,2.6,0,0,1,2.51,2.33,3.62,3.62,0,0,1,0,.46v6a.88.88,0,1,1-1.76.07V62.34c0-.28,0-.25-.25-.25h-.07c-.11,0-.15,0-.14.14a.57.57,0,0,1,0,.13V77.75a1.19,1.19,0,0,1-.68,1.14.44.44,0,0,1-.23.06c-.14,0-.28,0-.42,0a.91.91,0,0,1-.8-.4,1.21,1.21,0,0,1-.25-.78V68.83c0-.11,0-.15-.13-.15-.35,0-.35,0-.35.34v8.75a1.19,1.19,0,0,1-.68,1.13l-.06,0a1.67,1.67,0,0,1-1.12-.11,1.17,1.17,0,0,1-.52-1V62.3c0-.21,0-.21-.22-.21s-.24,0-.24.23v5.4a.87.87,0,0,1-.58.85A.86.86,0,0,1,140,68s0-.09,0-.13Z" style="fill:#fff"></path><path d="M144.74,58.36a2,2,0,1,1,2-2A2,2,0,0,1,144.74,58.36Z" style="fill:#fff"></path></g><path d="M139.16,91a.66.66,0,0,1-.68.66h-.12v.91a.66.66,0,0,1-1.32,0v-.91h-3.77a.58.58,0,0,1-.41-.15.64.64,0,0,1-.11-.92l4.44-5.52,0,0,0,0a.09.09,0,0,0,.06,0l.05,0s0,0,.07,0a0,0,0,0,1,0,0l.07,0h.31s0,0,.07,0h0l.06,0,.06,0s0,0,0,0,0,0,0,0l0,0,0,0a.16.16,0,0,1,.05.06.08.08,0,0,0,0,0,.19.19,0,0,1,0,.08v0a.19.19,0,0,1,0,.08s0,0,0,.06v4.88h.12A.67.67,0,0,1,139.16,91ZM137,87.36l-2.38,3H137Z" style="fill:#fff"></path><path d="M145.13,88.12a3,3,0,0,1,0,4.21,2.91,2.91,0,0,1-2.1.88h0a2.92,2.92,0,0,1-2.09-.88.67.67,0,0,1,0-1,.69.69,0,0,1,1,0,1.61,1.61,0,0,0,2.29,0,1.59,1.59,0,0,0,.48-1.14,1.54,1.54,0,0,0-.48-1.15,1.56,1.56,0,0,0-1.14-.47,1.62,1.62,0,0,0-1.15.47.67.67,0,0,1-1,0s-.08-.11-.13-.15,0,0,0,0a.11.11,0,0,0,0-.06s0-.06,0-.08,0,0,0,0a.67.67,0,0,1,0-.2l.36-3.11a.74.74,0,0,1,.3-.48l.05,0s0,0,0,0a.83.83,0,0,1,.32-.07h3.53a.68.68,0,1,1,0,1.36h-2.95l-.14,1.19a2.76,2.76,0,0,1,.8-.11A2.9,2.9,0,0,1,145.13,88.12Z" style="fill:#fff"></path><path d="M147.85,86.89v0a2,2,0,0,1,2-2.14,2,2,0,0,1,2,2.12v0a2,2,0,0,1-2,2.15A2,2,0,0,1,147.85,86.89Zm2.89,0v0c0-.67-.39-1.22-.93-1.22s-.9.55-.9,1.2v0c0,.69.39,1.23.93,1.23S150.74,87.53,150.74,86.89Zm-1.51,5.6,5.5-7.52a.46.46,0,0,1,.41-.22.48.48,0,0,1,.48.47.53.53,0,0,1-.11.31L150,93.05a.5.5,0,0,1-.42.22.46.46,0,0,1-.47-.47A.53.53,0,0,1,149.23,92.49Zm3.69-1.31v0a2,2,0,1,1,4,0v0a2,2,0,0,1-2,2.14A2,2,0,0,1,152.92,91.18Zm2.89,0v0c0-.67-.38-1.23-.92-1.23s-.9.56-.9,1.2v0c0,.68.38,1.22.92,1.22S155.81,91.83,155.81,91.18Z" style="fill:#fff"></path></g><g id="freepik--character-2--inject-8"><polygon points="375.35 349.91 372.9 364.58 356.33 464.4 353.66 464.4 365.71 364.58 367.49 349.91 375.35 349.91" style="fill:#dbdbdb"></polygon><polygon points="367.49 349.91 375.35 349.91 372.9 364.58 365.71 364.58 367.49 349.91" style="fill:#a6a6a6"></polygon><polygon points="427.4 464.4 424.73 464.4 408.15 364.58 405.71 349.91 413.57 349.91 415.35 364.58 427.4 464.4" style="fill:#dbdbdb"></polygon><polygon points="413.57 349.91 415.35 364.58 408.15 364.58 405.71 349.91 413.57 349.91" style="fill:#a6a6a6"></polygon><polygon points="459.29 464.4 456.62 464.4 440.05 364.58 437.6 349.91 445.46 349.91 447.24 364.58 459.29 464.4" style="fill:#dbdbdb"></polygon><polygon points="447.24 364.58 440.05 364.58 437.6 349.91 445.46 349.91 447.24 364.58" style="fill:#a6a6a6"></polygon><polygon points="455.05 356.81 351.43 356.81 351.43 344.01 396.89 344.01 412.17 255.11 450.42 255.11 455.05 356.81" style="fill:#dbdbdb"></polygon><polygon points="455.05 356.81 448.43 356.81 444.12 255.11 450.42 255.11 455.05 356.81" style="fill:#a6a6a6"></polygon><path d="M335.46,463.56c2.32.29,65.94-12.88,68-14.87.25-.22-.82-6-2.41-13.88l0-.16c-1-5-18.2-45.69-18.2-45.69l-41.29,10.2L359,437s-7.87,5.34-14.63,10.42l0,0a91.68,91.68,0,0,0-8.55,6.86C333.8,456.67,333.15,463.29,335.46,463.56Z" style="fill:#ad6359"></path><path d="M335.47,463.56c2.3.29,65.93-12.88,68-14.87.25-.22-.82-6-2.41-13.88l0-.15c-.37-1.87-3-8.7-6.15-16.53-6.79,1.61-31.14,7.42-40,9.87l4.14,9s-7.87,5.34-14.64,10.42v0a92.22,92.22,0,0,0-8.55,6.85C333.8,456.67,333.15,463.29,335.47,463.56Z" style="fill:#ebebeb"></path><path d="M335.25,463.85c2.38.28,66.05-13.06,68.16-15.1.8-.77-.3-10.79-3.45-21.47l-41,8.66s-21.3,15.85-23.37,18.34S332.87,463.58,335.25,463.85Z" style="fill:#FFC727"></path><path d="M335.63,461.12c10.61-2.5,53.68-11.58,64.36-13.24.09,0,.1,0,0,.07-10.47,2.7-53.61,11.43-64.35,13.34C335.44,461.33,335.4,461.17,335.63,461.12Z" style="fill:#263238"></path><path d="M355.8,437.71c4.26-1,9.53-.49,12.91,2.45.13.11,0,.3-.17.26a60,60,0,0,0-12.71-2.17A.27.27,0,0,1,355.8,437.71Z" style="fill:#263238"></path><path d="M352.77,439.68c4.26-.95,9.53-.48,12.91,2.46.13.11,0,.3-.17.26a60,60,0,0,0-12.71-2.17A.28.28,0,0,1,352.77,439.68Z" style="fill:#263238"></path><path d="M349.74,441.66c4.26-1,9.53-.48,12.92,2.45.13.12,0,.3-.18.26a60.7,60.7,0,0,0-12.7-2.17A.27.27,0,0,1,349.74,441.66Z" style="fill:#263238"></path><path d="M346.71,443.64c4.26-1,9.53-.49,12.92,2.45.13.11,0,.3-.18.26a60.06,60.06,0,0,0-12.7-2.17A.27.27,0,0,1,346.71,443.64Z" style="fill:#263238"></path><path d="M335.25,463.85c.74.09,7.43-1.14,16.37-3l-5.75-15.07c-4.85,3.75-9.41,7.37-10.32,8.46C333.5,456.76,332.86,463.57,335.25,463.85Z" style="opacity:0.1"></path><path d="M357.37,438l43.83-10.34s-36.8-81-33.59-85.28c1.61-2.13,42.42-2.76,55.39-13.77,16.86-14.3,5.55-36.16,5.55-36.16L383,291.07s.55,9.53-1.23,11c-1.17,1-55.47,5.53-61.43,23.85C313,348.36,357.37,438,357.37,438Z" style="fill:#263238"></path><path d="M359.82,338.57a7,7,0,0,1,3.44-1.07L383,334.19c6.16-1,12.35-2,18.47-3.14,5.08-1,10.24-2.3,14.62-5.05a21.24,21.24,0,0,0,9-11.74,37.78,37.78,0,0,0,1.15-15c-.11-1.22-.34-2.44-.57-3.65a.08.08,0,0,1,.15,0c1.67,9.34,1.82,20.19-5.18,27.64-3.41,3.63-8.1,5.76-12.88,7.14-5.4,1.56-11,2.3-16.58,3.23l-19.73,3.29c-3.17.53-6.38.94-9.52,1.6a3.21,3.21,0,0,0-1.72.76,2.45,2.45,0,0,0-.27,2.28c.31,1.55.73,3.09,1.18,4.61,3.59,12.26,29.41,69.82,30.12,71.17.07.14-.15.25-.23.11-6-10.76-25.18-55-29.17-66.59a75.06,75.06,0,0,1-2.58-9C359,340.64,358.86,339.39,359.82,338.57Z" style="fill:#37474f"></path><path d="M355.35,427.34c1.2-.55,12.7-3.29,15.24-3.89,5.09-1.19,21.12-4.69,24.06-5,.07,0,.1.12,0,.14-2.49.87-12.69,3.36-15.23,3.94-5.09,1.16-22.6,5.06-24.05,5.07C355.27,427.58,355.24,427.4,355.35,427.34Z" style="fill:#37474f"></path><path d="M271.17,464.54c2.21.75,67.18.51,69.58-1,.29-.17.4-6.05.4-14.09v-.16c0-5.09,1.58-48.63,1.58-48.63l-40.66-.34-2.54,42.87s-8.77,3.66-16.41,7.3l0,0a92,92,0,0,0-9.75,5C270.91,457.45,269,463.81,271.17,464.54Z" style="fill:#ad6359"></path><path d="M271.17,464.54c2.21.74,67.18.51,69.59-1,.29-.16.39-6,.4-14.08v-.16c0-.35,0-.71,0-1.07s0-.53,0-.79,0-.77,0-1.16c.09-3.38.26-8.88.46-14.9l-41.43-.27-.71,12.09s-8.77,3.67-16.42,7.3l0,0a92.56,92.56,0,0,0-9.74,5C270.92,457.45,269,463.81,271.17,464.54Z" style="fill:#ebebeb"></path><path d="M270.9,464.79c2.27.74,67.33.34,69.8-1.24.94-.59,1.86-10.63.9-21.72l-41.94.31s-24,11.3-26.56,13.32S268.62,464,270.9,464.79Z" style="fill:#FFC727"></path><path d="M271.81,462.18c10.91-.34,54.92-.66,65.72-.16.09,0,.09.07,0,.07-10.8.57-54.81.53-65.72.27C271.58,462.35,271.58,462.19,271.81,462.18Z" style="fill:#263238"></path><path d="M296.24,443.25c4.37-.08,9.44,1.43,12.17,5,.11.14-.09.29-.22.22a60.69,60.69,0,0,0-12-4.66A.28.28,0,0,1,296.24,443.25Z" style="fill:#263238"></path><path d="M292.88,444.59c4.36-.09,9.43,1.42,12.17,5,.1.14-.09.29-.22.22a60,60,0,0,0-12-4.65A.28.28,0,0,1,292.88,444.59Z" style="fill:#263238"></path><path d="M289.52,445.92c4.36-.08,9.43,1.43,12.17,5,.1.14-.09.28-.22.22a60.69,60.69,0,0,0-12-4.66A.28.28,0,0,1,289.52,445.92Z" style="fill:#263238"></path><path d="M286.16,447.26c4.36-.09,9.43,1.42,12.17,5,.1.14-.1.29-.23.22a59.73,59.73,0,0,0-12-4.65A.27.27,0,0,1,286.16,447.26Z" style="fill:#263238"></path><path d="M295.48,441.83l47.65-.42s-.57-75.43,3-80c4.79-6.13,71.84-6,86.22-26,12.92-18,2-43.36,2-43.36l-50.78-1.51a104,104,0,0,0,4.71,16s-61.17,11.28-78.31,30C298.46,349.25,295.48,441.83,295.48,441.83Z" style="fill:#263238"></path><path d="M379.4,303.06a23.66,23.66,0,0,1,4.3,1.38c1.46.55,2.89,1.18,4.3,1.87a85.7,85.7,0,0,1,8,4.54c.08,0,0,.16-.08.12-2.75-1.42-5.59-2.71-8.43-3.93l-4.1-1.77a44,44,0,0,1-4.15-1.84C379.1,303.34,379.19,303,379.4,303.06Z" style="fill:#37474f"></path><path d="M382.44,290.52c.58,2.32,1.09,4.66,1.75,7,.31,1.06.61,2.13,1,3.15.33.86.84,1.85,1.84,2s1.48-.76,1.39-1.71-.38-2.13-.59-3.17c-.24-1.2-.48-2.41-.7-3.61-.11-.61-.23-1.21-.33-1.82,0-.15-.14-1.31-.22-1.64,0,0,0,.06-.06.05h0s-.07,0-.07-.06a.16.16,0,0,1,.05-.18.14.14,0,0,1,.11,0c.22.13.23.43.31.65.18.59.37,1.17.54,1.76.33,1.11.64,2.22.92,3.34s.55,2.23.83,3.35a5.23,5.23,0,0,1,.22,2.57,2,2,0,0,1-1.82,1.49,1.55,1.55,0,0,1,.12.22c.11.23.18.47.27.71s.16.48.23.72a1.53,1.53,0,0,1,.07.36c0,.13,0,.27,0,.4a.19.19,0,0,1-.35.13c-.07-.12-.15-.21-.22-.32a2.71,2.71,0,0,1-.17-.39c-.08-.24-.14-.47-.2-.7s-.13-.47-.18-.71,0-.29,0-.43a2.7,2.7,0,0,1-1.34-.51,4.48,4.48,0,0,1-1.38-2.11c-.35-1-.62-2-.89-3a44.09,44.09,0,0,1-1.48-7.47A.22.22,0,0,1,382.44,290.52Z" style="fill:#37474f"></path><path d="M412.64,296.19c.21,1.16.34,2.32.61,3.46s.56,2.23.93,3.31a11.7,11.7,0,0,0,1.41,3,11.1,11.1,0,0,0,2.25,2.29,19.28,19.28,0,0,0,5.44,3,26.28,26.28,0,0,0,3,.88c.53.12,1.07.21,1.61.28a3.45,3.45,0,0,1,1.31.31.26.26,0,0,1,0,.45,4.68,4.68,0,0,1-2.41.07,17.51,17.51,0,0,1-2.57-.45,18.39,18.39,0,0,1-4.86-2.05,15.32,15.32,0,0,1-4.06-3.32,11.54,11.54,0,0,1-2.18-4.77,23.48,23.48,0,0,1-.7-6.47A.11.11,0,0,1,412.64,296.19Z" style="fill:#37474f"></path><path d="M338.92,364.44a14.42,14.42,0,0,1,.9-4c1.05-2.7,3.3-4.07,6-4.76,3.21-.81,6.52-1.29,9.79-1.82s6.68-1,10-1.49c6.78-.95,13.57-1.82,20.32-3a161.86,161.86,0,0,0,19.94-4.49c6-1.81,12.15-4.05,16.95-8.21,10.34-9,10.72-24,9.45-36.53-.18-1.78-.39-3.54-.61-5.31,0-.1.13-.13.14,0,.82,7.07,1.77,14.18,1.07,21.31a34.77,34.77,0,0,1-5.65,16.51c-3.5,5-8.68,8.26-14.27,10.52a112.37,112.37,0,0,1-19,5.49c-13.41,2.8-27.08,4-40.56,6.3-1.67.29-3.33.59-5,.91A20.8,20.8,0,0,0,344,357c-3.07,1.37-3.94,4.35-4.29,7.44-1.28,11.25-3.19,62.5-3.17,64.29,0,.16-.25.15-.25,0C335.88,409.81,337.64,378.92,338.92,364.44Z" style="fill:#37474f"></path><path d="M343.27,387.15c.07-5,.21-2.78.32-7.73.1-4.67,0-9.43.91-14,.37-1.86.7-4.32,2.69-5.17a22.87,22.87,0,0,1,3.25-1c1.17-.31,2.35-.61,3.54-.87,5.47-1.17,11-1.92,16.55-2.66.1,0,.15.13,0,.15-4.69.91-9.38,1.83-14,2.89-2.33.53-4.66,1.08-7,1.71-.95.26-2.23.45-2.89,1.23a7.66,7.66,0,0,0-1.13,3.13c-1.07,4.52-1,9.24-1.11,13.85-.13,4.79-.25,2.44-.39,7.23-.15,5.36-.29,10.75-.66,16.11a.12.12,0,0,1-.23,0C343.07,397.06,343.2,392.1,343.27,387.15Z" style="fill:#37474f"></path><path d="M300,432.12c1.29-.29,13.12-.46,15.72-.49,5.22-.05,21.63,0,24.58.33.07,0,.07.14,0,.15-2.61.3-13.11.51-15.71.52-5.23,0-23.16,0-24.58-.28A.12.12,0,0,1,300,432.12Z" style="fill:#37474f"></path><path d="M388,306.66a171,171,0,0,0-27.7,5.69A193.36,193.36,0,0,0,333.58,322c-4.86,2.18-9.56,4.62-14.23,7.19-.09,0,0,.19.09.14a216.3,216.3,0,0,1,26-11.35,208.92,208.92,0,0,1,27.07-7.86c5.18-1.13,10.39-2,15.61-2.87C388.45,307.22,388.36,306.63,388,306.66Z" style="fill:#263238"></path><path d="M404,244.18c-2.41,19.38-11.78,43.54-14.75,45.25-6.4,3.66-42,12.17-43.47,12.11-3.6-.2-9.18-24.45-6.31-27,.66-.58,34.79-5.61,36.25-6.11,1.78-.61,10.81-14.46,19.16-27.4C400.78,231.91,405.31,233.87,404,244.18Z" style="fill:#d3766a"></path><path d="M348.83,270.05,354,301.54s26.34-6.59,35.79-11.14c5.07-2.45,13.5-34.41,14.85-45.12,1.34-10.52-2.64-16.73-9.88-5.75-6.83,10.36-19,26.43-19.9,26.93S348.83,270.05,348.83,270.05Z" style="fill:#455a64"></path><path d="M359.48,284.11q-.53-3.21-1.08-6.42c-.37-2.12-.66-4.3-1.18-6.39,0-.09-.19-.09-.18,0,.12,2.08.48,4.18.75,6.25s.6,4.39.92,6.58c.62,4.34,1.42,8.64,2.29,12.94,0,.1.17.06.16,0C360.7,292.72,360.17,288.41,359.48,284.11Z" style="fill:#263238"></path><path d="M404.63,245.28C403.28,256,394.85,288,389.78,290.4c-5.5,2.65-16.72,6-25.14,8.32l38.08-64.51C404.59,235.54,405.32,239.83,404.63,245.28Z" style="opacity:0.1"></path><path d="M439,308.53c-.15.15-57.4-3.62-57.92-4.29a41.73,41.73,0,0,1,.24-5.14s-3.68-5.17-1-12.9c5.6-16.34,16.77-49,20.1-52.42,4-4.21,10.69-5.19,15.36-2.06,9.8,6.57,22.28,50.56,25.65,61,1.67,5.15-2.24,8.12-3,10.44A46.41,46.41,0,0,1,439,308.53Z" style="fill:#455a64"></path><path d="M382.53,300c1.9,0,16,1.11,19.68,1.35,7.44.46,14,.87,21.44,1.3l6.23.34c2.17.11,4.32.37,6.49.49a.09.09,0,0,1,0,.17c-1.9,0-3.81.06-5.71,0l-5.45-.19c-3.72-.13-6.57-.31-10.29-.51-7.44-.39-30.24-2.4-32.38-2.71C382.38,300.17,382.37,300,382.53,300Z" style="fill:#263238"></path><path d="M423.37,236.59c13.82,13.07,31.59,38.18,29.47,45.53-2.82,9.77-47.22,19.29-54.53,20.71-3.12.6-3.73-26.63-.41-27.35,2.89-.62,27.06-6.3,27.93-7.86.5-.91-3.76-8.51-10.84-27.44C410.41,228,419.6,233,423.37,236.59Z" style="fill:#d3766a"></path><path d="M407.48,277.26s-1.64-.16-10.17-2.42c-5.9-1.56-21.27-1.6-31.41,12.24-3.88,5.31-1.86,10.35,3.16,5.55,3.53-3.37,5.68-6,7.14-6.79,0,0-1,7.41,2.16,10.37a79.21,79.21,0,0,0,8.81,7.15,17.26,17.26,0,0,0,1.48-1.53,9.13,9.13,0,0,0,9.66,1Z" style="fill:#d3766a"></path><path d="M391.44,274.25c-2.87,1.42-8.9,4.52-12.95,8.77-4.49,4.73-11.88,15.05-8.36,18.33,2.58,2.41,5.75-1.28,5.75-1.28s-2.16,4.91.65,6.57c2.56,1.52,4.84-1.48,4.84-1.48s-.79,3.2,1.95,4.18c3.31,1.19,4.43-5.71,8.82-7.41C393.12,301.56,391.44,274.25,391.44,274.25Z" style="fill:#d3766a"></path><path d="M384.28,286.94a26,26,0,0,0-8.44,13c0,.13.05.22.1.11A64.33,64.33,0,0,1,384.32,287,0,0,0,0,0,384.28,286.94Z" style="fill:#263238"></path><path d="M388.92,291.62c-2,1.75-6.47,7.61-7.65,13.48,0,.13.06.22.11.1A68.17,68.17,0,0,1,389,291.66S388.94,291.6,388.92,291.62Z" style="fill:#263238"></path><path d="M397.6,274.63l13.56,27.92s39.31-10.63,42.56-19.3c2.72-7.28-16.29-33-22.94-40C417.4,229.1,410.66,228.8,414.24,240c4.15,13.06,10.72,26.47,10.16,27.24S397.6,274.63,397.6,274.63Z" style="fill:#455a64"></path><path d="M410.18,287.39c-1-2.08-2-4.15-3-6.21s-2-4.18-3.11-6.15a.09.09,0,0,0-.16.07c.77,2.08,1.76,4.11,2.66,6.13s1.94,4.29,2.93,6.43c1.94,4.24,4,8.37,6.19,12.49.05.1.18,0,.14-.09C414,295.79,412.18,291.56,410.18,287.39Z" style="fill:#263238"></path><path d="M397.66,274.24c8.9-2.58,18-4.54,26.87-7.09-1.34-3.42-2.95-6.76-4.37-10.15-.26-.61-.5-1.22-.75-1.83-1-1.57-2-3.15-3-4.78,0,0,0,0,0,0,.9,1.29,1.75,2.6,2.59,3.93-1.07-2.63-2.12-5.26-3.17-7.89,0-.06.06-.11.09-.05,1.6,3.45,3.2,6.9,4.74,10.38s2.88,7.06,4.51,10.49a.3.3,0,0,1-.15.4c-4.45,1.46-9,2.56-13.55,3.71s-9,2.33-13.6,3.28c0,.25.07.5.1.76a.14.14,0,0,1-.27.05l-.25-.94A.21.21,0,0,1,397.66,274.24Z" style="fill:#263238"></path><path d="M410,300.24l1.22,2.27-.13-.06c7.81-2.46,15.61-5,23.24-7.95a114.37,114.37,0,0,0,11.22-4.91,25.88,25.88,0,0,0,7.45-5.2,4.85,4.85,0,0,0,1.27-2.71,4.77,4.77,0,0,1-1.07,2.87c-7.3,8.76-30.76,15.33-42.05,18.11l-.09,0,0-.08-1-2.36Z" style="fill:#263238"></path><rect x="364.7" y="307.09" width="56.41" height="2.53" style="fill:#455a64"></rect><rect x="382.72" y="307.09" width="38.39" height="2.53" style="fill:#a6a6a6"></rect><polygon points="383.77 309.62 338.8 309.62 331.03 272.28 376 272.28 383.77 309.62" style="fill:#a6a6a6"></polygon><polygon points="381.28 309.62 336.3 309.62 328.54 272.28 373.51 272.28 381.28 309.62" style="fill:#dbdbdb"></polygon><path d="M357.77,291a2.53,2.53,0,0,1-2.56,2.87A3.27,3.27,0,0,1,352,291a2.53,2.53,0,0,1,2.57-2.87A3.25,3.25,0,0,1,357.77,291Z" style="fill:#fff"></path><path d="M326,272.94c-.8,3.89-3.91,9.25-3.55,12.19a3.39,3.39,0,0,0,2.68,3s-2.49,2.12-1.73,4.73c.39,1.34,2.89,1.89,2.89,1.89a4.06,4.06,0,0,0-1.11,4.07c.66,1.81,3.05,2.09,3.05,2.09s-1.05,2.58.21,4.21c2.56,3.32,18.66-.63,19.69-7.17.48-3.05-3.4-1.87-3.4-1.87s5.17-3,4.44-6.38-5.68-1.5-5.68-1.5,5-3,3.88-6.38c-1.15-3.53-5.79-.84-5.79-.84s3-3.31,1.55-5.71c-2.38-4-7.84,3.1-11.58,3.13l-3.38-5.36Z" style="fill:#d3766a"></path><path d="M324,278.8c.43-3.76-4.87-7-5-10.62-.14-4.94,6.27-1.63,9.12,4.89l1.32,5.45Z" style="fill:#d3766a"></path><path d="M328.56,301c-.06,0-.06.09,0,.09a28.76,28.76,0,0,0,16.34-5.06c.15-.11,0-.4-.15-.31A58.87,58.87,0,0,1,328.56,301Z" style="fill:#263238"></path><path d="M326.17,294.84c-.07,0-.05.11,0,.11a26.9,26.9,0,0,0,17.48-6.63c.16-.15.16-.45,0-.29C340.2,290.74,331.46,294,326.17,294.84Z" style="fill:#263238"></path><path d="M341.78,280.57c-4.78,4.09-10.38,6.23-16.46,7.6-.08,0-.05.13,0,.13,3.15.14,6.93-1.14,9.79-2.38a16.62,16.62,0,0,0,6.79-5.18C342,280.65,341.89,280.49,341.78,280.57Z" style="fill:#263238"></path><path d="M402.17,242.5c3.64.66,10.3-5.65,12.51-10.23.15-.31-.49-3.51-1.07-7.43-.35-2.38-.68-5-.8-7.48l-15.16,4.51a39.31,39.31,0,0,1,2,9.32,5.49,5.49,0,0,1-.06,1c0,.05,0,.11,0,.17C399.33,234.29,398.65,241.85,402.17,242.5Z" style="fill:#d3766a"></path><path d="M399.56,232.2c0,.05,0,.1,0,.16a9.13,9.13,0,0,0,1.58,0c8.87-.66,10.41-11.64,10.65-14.72L408,218.79l-10.35,3.08a38.59,38.59,0,0,1,2,9.33A4.69,4.69,0,0,1,399.56,232.2Z" style="fill:#263238"></path><path d="M417.65,205.42c.23,5.69-6.54,20.19-11.18,22.6-6.72,3.5-15.75,1.64-18.22-6-2.39-7.39,6.77-26.13,11.76-28.12C407.37,191,417.32,197,417.65,205.42Z" style="fill:#d3766a"></path><path d="M400.07,211.38s.06.08,0,.12c-.49,1-.88,2.15-.14,2.88,0,0,0,.07,0,.05C398.92,213.78,399.46,212.21,400.07,211.38Z" style="fill:#263238"></path><path d="M401.42,210.76c1.63.6.29,3.82-1.22,3.25S400.05,210.25,401.42,210.76Z" style="fill:#263238"></path><path d="M394.5,208.85s-.1,0-.11.05c-.39,1-1,2.1-2,2.06,0,0-.05,0,0,.06C393.51,211.32,394.3,209.86,394.5,208.85Z" style="fill:#263238"></path><path d="M394,207.44c-1.55-.79-3,2.37-1.57,3.1S395.34,208.1,394,207.44Z" style="fill:#263238"></path><path d="M403.58,209.23a13.6,13.6,0,0,1-1.09-.92,2.27,2.27,0,0,1-.93-1.15.73.73,0,0,1,.42-.79,1.82,1.82,0,0,1,1.79.47,2.69,2.69,0,0,1,1,1.64A.78.78,0,0,1,403.58,209.23Z" style="fill:#263238"></path><path d="M393.93,204.22a11.13,11.13,0,0,0,1.41.2,2.34,2.34,0,0,0,1.48-.07.75.75,0,0,0,.31-.85,1.83,1.83,0,0,0-1.55-1,2.68,2.68,0,0,0-1.9.32A.78.78,0,0,0,393.93,204.22Z" style="fill:#263238"></path><path d="M397.7,220.78c-.34.13-.71.36-1.08.24a2.9,2.9,0,0,1-1-.7,0,0,0,0,0-.06,0,1.45,1.45,0,0,0,1,1.06,1.15,1.15,0,0,0,1.15-.56C397.82,220.81,397.75,220.76,397.7,220.78Z" style="fill:#263238"></path><path d="M397.89,217.36a3.63,3.63,0,0,1-2.89.57,4.3,4.3,0,0,1-1.24-.45.78.78,0,0,1-.22-.12l-.21-.12a.29.29,0,0,1-.11-.31h0a.41.41,0,0,1,0-.09h0l0-.09c.3-.77.85-1.91.85-1.91-.33,0-2,.08-1.84-.31a54.9,54.9,0,0,1,5.57-9.72c.07-.1.23,0,.17.1-1.39,3.17-3.32,6.07-4.77,9.23a6.32,6.32,0,0,1,1.8.18c.1.07-1.11,2.17-1.22,2.53a.1.1,0,0,0,0,0,5.11,5.11,0,0,0,4,.37C397.93,217.21,398,217.31,397.89,217.36Z" style="fill:#263238"></path><path d="M410.73,212.12c-.19-3.24,2.86-7.74,1.74-9.48-2.42-3.75-10.49,0-15-1.21s-5.07-4.37-3.32-7.7,5.41-4.89,10.51-4.28a19.12,19.12,0,0,1,11.42,6.21s-.63-2.07-.06-2.5,2.23,1.84,2.69,2.74a7,7,0,0,1,.5,2.4,7.24,7.24,0,0,1,2.05.34,4.32,4.32,0,0,1,2.27,1.86c0,.28-1.64.05-2.77-.2,0,0,1.33,3.33.64,5.68s-7.41,12.56-8.33,12.44C411.9,218.27,410.82,213.43,410.73,212.12Z" style="fill:#263238"></path><path d="M420.41,199.9s-.1,0-.07,0a7.77,7.77,0,0,1,1.45,4,9.65,9.65,0,0,1-1.28,4.88c-1.53,2.91-3.81,5.31-5.91,7.81-.06.08.06.18.13.11a33.92,33.92,0,0,0,6.38-8.41C422.39,205.63,422.62,202.2,420.41,199.9Z" style="fill:#263238"></path><path d="M413,201.54a11.32,11.32,0,0,0-4-.82,15.92,15.92,0,0,0-3.85.76,15.68,15.68,0,0,1-8.67,0,0,0,0,1,0,0,.06,13.72,13.72,0,0,0,7.95.43,34.8,34.8,0,0,1,4-.9,14,14,0,0,1,4.53.69A.13.13,0,0,0,413,201.54Z" style="fill:#263238"></path><path d="M413.72,193.69a21.53,21.53,0,0,0-5.1-3.38,16.91,16.91,0,0,0-5.59-1.73c-3.38-.35-6.91.9-8.58,4a7.33,7.33,0,0,0-.71,5.23.09.09,0,0,0,.18,0,7.58,7.58,0,0,1,4-8.13c3.28-1.58,7.05-.74,10.22.68a31.34,31.34,0,0,1,5.57,3.38S413.73,193.7,413.72,193.69Z" style="fill:#263238"></path><path d="M411.15,217s4.81-3.93,6.69-2.08-2.71,8.22-5.6,8.45a2.76,2.76,0,0,1-3.15-2.43Z" style="fill:#d3766a"></path><path d="M416.48,216.69s0,.07,0,.08c-2,.22-3.48,1.64-4.66,3.21a1.53,1.53,0,0,1,2.31.22c0,.05,0,.11-.08.08a1.72,1.72,0,0,0-2,.06,9.68,9.68,0,0,0-1.27,1.21c-.13.14-.4,0-.28-.2l0,0C411.17,219,413.91,216.22,416.48,216.69Z" style="fill:#263238"></path><polygon points="399.28 234.59 400.9 241.69 414.46 227.91 415.61 231.91 402.29 247.81 400.67 242.53 397.34 245.8 397.65 237.77 399.28 234.59" style="fill:#ebebeb"></polygon><path d="M415.61,231.91c-4.38,5.54-8.88,11-13.42,16.38l-.12-.41-1.6-5.29.35.09-3.37,3.23-.29.28c.13-2.81.32-5.62.5-8.42-.05,2.68-.08,5.36-.16,8l-.27-.12,3.3-3.3.24-.24.1.32,1.64,5.27-.4-.08c4.44-5.3,8.91-10.58,13.5-15.75Z" style="fill:#263238"></path></g><g id="freepik--Megaphone--inject-8"><polygon points="219.16 230.66 232.63 223.53 211.97 184.52 194.93 193.54 219.16 230.66" style="fill:#FFC727"></polygon><polygon points="194.93 193.54 204.17 207.7 219.17 230.66 232.64 223.53 211.98 184.51 194.93 193.54" style="fill:#FFC727"></polygon><polygon points="194.93 193.54 204.17 207.7 219.17 230.66 232.64 223.53 211.98 184.51 194.93 193.54" style="fill:#fff;opacity:0.2"></polygon><polygon points="194.93 193.54 201.02 202.88 218.27 196.4 211.98 184.51 194.93 193.54" style="opacity:0.1"></polygon><rect x="190.74" y="177.61" width="24" height="18.23" transform="translate(469.28 256.87) rotate(152.1)" style="fill:#FFC727"></rect><rect x="190.74" y="177.61" width="24" height="18.23" transform="translate(469.28 256.87) rotate(152.1)" style="opacity:0.2"></rect><polygon points="170.55 185.92 187.89 178.84 174.09 152.77 158.49 163.14 170.55 185.92" style="fill:#FFC727"></polygon><g style="opacity:0.2"><polygon points="170.55 185.92 187.89 178.84 174.09 152.77 158.49 163.14 170.55 185.92" style="fill:#fff"></polygon></g><polygon points="179.83 143.12 200.2 181.59 229.6 170.27 306.39 159.88 257.47 67.48 205.72 125.17 179.83 143.12" style="fill:#FFC727"></polygon><polygon points="179.83 143.12 200.2 181.59 229.6 170.27 306.39 159.88 257.47 67.48 205.72 125.17 179.83 143.12" style="fill:#fff;opacity:0.2"></polygon><path d="M306.4,159.88l-76.8,10.38-29.4,11.33L195,171.71c9-2.48,32.69-9,33.22-9Z" style="opacity:0.1"></path><ellipse cx="283.43" cy="112.89" rx="16.89" ry="52.54" transform="translate(-19.88 145.76) rotate(-27.9)" style="fill:#FFC727"></ellipse><path d="M271.56,118.15c12.05,22.76,27.3,38.32,34,34.75s2.45-24.93-9.6-47.69S268.7,66.89,262,70.47,259.51,95.39,271.56,118.15Z" style="opacity:0.2"></path><path d="M273.55,117.1c1.61,3,3.27,5.93,5,8.67a10.31,10.31,0,0,0,6.91-1,10.43,10.43,0,0,0,4.33-14.11l-2.31-4.35a10.41,10.41,0,0,0-18.77.71C270.11,110.3,271.75,113.69,273.55,117.1Z" style="fill:#FFC727"></path><path d="M273.55,117.1c1.61,3,3.27,5.93,5,8.67a10.31,10.31,0,0,0,6.91-1,10.43,10.43,0,0,0,4.33-14.11l-2.31-4.35a10.41,10.41,0,0,0-18.77.71C270.11,110.3,271.75,113.69,273.55,117.1Z" style="fill:#fff;opacity:0.2"></path><polygon points="186.42 191.62 219.96 177.93 193.27 127.52 163.09 147.57 186.42 191.62" style="fill:#FFC727"></polygon><g style="opacity:0.1"><polygon points="186.42 191.62 219.96 177.93 193.27 127.52 163.09 147.57 186.42 191.62"></polygon></g><path d="M255.46,72.15c-1,4.18-.69,8.56-.17,12.8a81.82,81.82,0,0,0,2.85,12.56c.58,2.07,1.35,4.08,2.05,6.11s1.55,4,2.4,6,1.7,4,2.65,5.87,1.85,3.87,2.84,5.77A141.81,141.81,0,0,0,281.84,143a73.83,73.83,0,0,0,8.78,9.42c3.27,2.75,6.83,5.38,11,6.56-4.05-1.44-7.47-4.13-10.57-7a72.91,72.91,0,0,1-8.44-9.55,150,150,0,0,1-13.42-21.72A154.68,154.68,0,0,1,259,97.23a82.49,82.49,0,0,1-3.16-12.37A37.18,37.18,0,0,1,255.46,72.15Z" style="opacity:0.2"></path><path d="M289.49,56c-1.52,2.27-2.92,4.61-4.3,7s-2.7,4.72-4,7.1-2.56,4.8-3.76,7.24L275.63,81c-.56,1.24-1.15,2.47-1.68,3.73.77-1.13,1.47-2.3,2.21-3.44l2.09-3.51c1.4-2.34,2.71-4.72,4-7.1s2.56-4.8,3.76-7.24S288.42,58.56,289.49,56Z" style="fill:#263238"></path><path d="M299.51,136.42c3.07-.18,6.13-.49,9.17-.82s6.09-.74,9.13-1.15,6.07-.89,9.09-1.43l4.52-.82c1.51-.31,3-.59,4.52-.94-1.54.08-3.07.23-4.6.35l-4.58.47c-3.05.32-6.09.73-9.12,1.15s-6.07.89-9.09,1.43S302.51,135.74,299.51,136.42Z" style="fill:#263238"></path><path d="M350,108.89c-4.39,1-8.74,2.22-13.08,3.41s-8.68,2.46-13,3.73-8.63,2.61-12.91,4l-6.43,2.1c-2.13.74-4.27,1.44-6.39,2.22,2.2-.51,4.37-1.1,6.56-1.64l6.53-1.77c4.35-1.19,8.67-2.46,13-3.74s8.63-2.61,12.92-4S345.72,110.42,350,108.89Z" style="fill:#263238"></path><path d="M313.71,49.16c-2.9,3.54-5.7,7.16-8.48,10.79s-5.5,7.3-8.21,11-5.38,7.4-8,11.15l-3.91,5.63c-1.27,1.91-2.57,3.79-3.8,5.72,1.46-1.77,2.86-3.57,4.29-5.36l4.19-5.43c2.79-3.62,5.5-7.3,8.21-11s5.37-7.39,8-11.15S311.22,53,313.71,49.16Z" style="fill:#263238"></path><path d="M291.09,108.38c4.76-2.29,9.45-4.71,14.14-7.14s9.32-4.95,14-7.43,9.26-5.07,13.85-7.68l6.87-3.92c2.27-1.35,4.56-2.66,6.81-4-2.38,1.14-4.73,2.35-7.1,3.52l-7,3.62c-4.68,2.43-9.32,5-14,7.43s-9.25,5.07-13.84,7.68S295.6,105.64,291.09,108.38Z" style="fill:#263238"></path></g><g id="freepik--character-1--inject-8"><path d="M178.41,463.74c-2.14.72-63.46.86-65.8-.62-.9-.55-1.44-9.48-1.78-20.29,0-.12-.53-40-.53-40l40.48-.45-.4,39.54v.67s23.5,10.44,25.9,12.34S180.55,463,178.41,463.74Z" style="fill:#f7a9a0"></path><path d="M160.65,446.59q-.21-.06-.24-.12Z" style="fill:#FFC727"></path><path d="M111.08,449.53c.34,7.59.83,13.16,1.53,13.59,2.34,1.48,63.66,1.34,65.8.61s.24-6.87-2.14-8.76c-1.52-1.2-11.47-5.82-18.58-9.05,6,3.22,13.34,6.46,8.6,7.29S129.52,453.89,111.08,449.53Z" style="fill:#263238"></path><path d="M89,225.14s21.33,107.12,22.83,115c.25,1.27-5.37,44.22-5.66,68.13a29.26,29.26,0,0,0,4.5,16.35l42.28,1.9s4.64-6.27,4.74-12.71c.32-20.69-3.74-63.49-5.2-75.54-1.91-15.81-26.07-113.16-26.07-113.16Z" style="fill:#263238"></path><path d="M112.91,416.8c6.74.09,4.81,0,11.55.13,3.3.08,25,.63,28.05,1.24.07,0,.07.13,0,.14-3.1.41-24.77-.52-28.07-.66-6.74-.3-4.8-.28-11.54-.65A.1.1,0,0,1,112.91,416.8Z" style="fill:#37474f"></path><path d="M117.34,340.49c-.48-5.89-1.82-11.74-2.93-17.54s-2.26-11.9-3.39-17.85c-2.24-11.79-4.43-23.58-6.69-35.35-2.56-13.32-6.2-26.33-8.89-39.62-.06-.31-.52-.16-.47.14,4.18,23.63,9.73,46.9,14.19,70.48l3.39,17.85c1.1,5.81,2.33,11.6,3.28,17.43a48.4,48.4,0,0,1,.65,9.16c-.08,2.88-.38,5.76-.64,8.63-.55,6-1.11,12.08-1.64,18.12q-.87,10-1.72,19.92c-.57,6.75-1.2,13.51-1.54,20.28a.08.08,0,0,0,.16,0c1.58-11.91,2.52-23.93,3.66-35.89q.85-9.06,1.68-18.11C117,352.3,117.81,346.37,117.34,340.49Z" style="fill:#37474f"></path><path d="M121.94,225.14l-13.32,98.78c-6.34-32-19.64-98.78-19.64-98.78Z" style="fill:#37474f"></path><path d="M108,466.4c-2.2.52-63.24-5.43-65.41-7.13-.84-.64-.5-9.58.23-20.38l0-.33c.15-2.23.31-4.52.5-6.84,0-.32.06-.64.07-1l3.71-31.9L88,402.72l-4.75,31.51-.15,1.24-.8,6.48-.08.67s22.34,12.72,24.54,14.85S110.2,465.9,108,466.4Z" style="fill:#f7a9a0"></path><path d="M92,447.58c-.14-.06-.22-.11-.23-.14Z" style="fill:#FFC727"></path><path d="M42.58,459.26c2.18,1.71,63.22,7.65,65.42,7.14s.91-6.81-1.27-8.93c-1.42-1.38-11.26-7.18-18-11.11,5.35,4.22,11.89,8.66,7.1,8.64s-35.67-5.71-53.16-13.13C42,451.29,41.83,458.69,42.58,459.26Z" style="fill:#263238"></path><path d="M83.93,430.25l-41.08-4.56s-4-10.79-1.53-21c5.2-21.62,20-54.85,21-58.66,1.61-5.81,5.2-52.62,8.68-81.55,0,0-6.61-15.67,5.77-39.33h49.62s-3.32,22.52-9,36.79c0,0,1.06-.8-5.64,2.89,0,0-4.11,73.51-7.11,87.43-2.48,11.49-6.8,48.31-11.93,66.92C90.93,425.72,83.93,430.25,83.93,430.25Z" style="fill:#263238"></path><path d="M45.62,416.65c6.72.62,4.8.35,11.51,1.05C60.41,418,82,420.3,85,421.16c.07,0,.06.13,0,.13-3.13.16-24.66-2.48-27.93-2.88-6.7-.83-4.77-.66-11.45-1.57A.1.1,0,1,1,45.62,416.65Z" style="fill:#37474f"></path><path d="M119.31,260.92a82,82,0,0,0-12.92,6,.15.15,0,0,0,.12.27c4.35-1.87,8.79-3.66,13-5.77A.28.28,0,0,0,119.31,260.92Z" style="fill:#37474f"></path><path d="M120.69,231.07c0-.15-.28-.19-.28,0a142.17,142.17,0,0,1-.73,14.53c-.2,2.25-2,14.63-5.89,13.73-.65-.15-1-.79-1.08-1.77a15.44,15.44,0,0,1,.51-3.8c.43-2.6.78-5.2,1-7.82a71,71,0,0,0-.15-14.65.13.13,0,0,0-.25,0,135.41,135.41,0,0,1-1.19,20.23c-.48,3.22-2.11,8.08,1.26,8.57s5.65-7.62,6.07-9.84A74.15,74.15,0,0,0,120.69,231.07Z" style="fill:#37474f"></path><path d="M113.9,259.64a19.47,19.47,0,0,0-.88,2.57,5.93,5.93,0,0,0-.36,2.11c0,.14.19.15.27.06a7.45,7.45,0,0,0,.9-2.06c.3-.79.61-1.58.88-2.38A.43.43,0,0,0,113.9,259.64Z" style="fill:#37474f"></path><path d="M80,227.51a41.61,41.61,0,0,0-5.45,15.05,46.34,46.34,0,0,0,.52,16.1,35.67,35.67,0,0,1,.72,9.44c-.23,3.23-.66,6.45-1,9.67q-1.07,9.47-2.11,18.93c-1.39,12.56-2.67,25.15-4.32,37.69a152.85,152.85,0,0,1-3.46,18.25c-1.52,5.94-3.33,11.79-5.15,17.65-3.74,12.07-7.51,24.13-11.11,36.25-.44,1.51-.89,3-1.32,4.55,0,.12.16.16.2,0,4.08-11.9,7.67-24,11.44-36,3.69-11.73,7.44-23.43,9.35-35.61,1-6.2,1.64-12.44,2.35-18.67s1.43-12.61,2.14-18.92,1.43-12.49,2.12-18.73c.34-3.16.69-6.31,1-9.47a65.82,65.82,0,0,0,.65-9.09,69,69,0,0,0-1.31-8.92,41.63,41.63,0,0,1-.48-8.27,43.28,43.28,0,0,1,3.85-16c.57-1.24.89-2.53,1.56-3.71C80.44,227.39,80.24,227.19,80,227.51Z" style="fill:#37474f"></path><path d="M94.68,229.62c-.79,2.1-1.7,4.16-2.66,6.19a15.67,15.67,0,0,1-3.31,5,12.51,12.51,0,0,1-5,2.55,28.08,28.08,0,0,1-3.25.7,22.84,22.84,0,0,0-3.3.61.22.22,0,0,0,0,.42,14.54,14.54,0,0,0,3.55.1,21.39,21.39,0,0,0,3.4-.46,12.35,12.35,0,0,0,5.5-2.81A14.57,14.57,0,0,0,93,236.46a36.35,36.35,0,0,0,2-6.77A.15.15,0,0,0,94.68,229.62Z" style="fill:#37474f"></path><path d="M116.66,198.08c-6.13,2.48-12.75,2.49-18.93,1.49-5.75-.94-13-2.38-16.17-8.31-3.33-6.14-3.59-13.69-2.28-20.88A105.16,105.16,0,0,1,87,145.26c2.61-5.71,6.88-13.71,17.65-13.65,6.05,0,11,5.89,12.11,12.56,1.27,7.41-.46,15.08,1.8,22.34,2.1,6.75,8.5,11.32,8.62,19C127.26,192.18,121.6,196.09,116.66,198.08Z" style="fill:#263238"></path><path d="M91.16,196.4c-5.35-2.07-12-4.51-13.17-11.63-1.08-6.36.2-13.5,1.87-19.79,3.15-11.91,8-25.95,18.37-32,.15-.08,0-.35-.1-.28-5.36,2.43-9.19,7.81-11.93,13.44a101.85,101.85,0,0,0-7.51,21.43c-1.41,6.2-2.74,14.17-.53,20.06,2,5.4,8.34,7.52,12.94,9.07C91.25,196.71,91.3,196.45,91.16,196.4Z" style="fill:#263238"></path><path d="M127.92,178.91c-1.22-3-3.29-5.37-5.08-7.92a24.32,24.32,0,0,1-4.25-11.84c-.7-6.42-.76-12.88-3.15-18.79,0,0-.06,0,0,0,2.1,5.62,2.21,11.86,2.74,17.92a26,26,0,0,0,4.64,13.42c4.22,5.94,9,13.45,1.75,20.18a22.74,22.74,0,0,1-17.58,6c-.24,0-.35.41-.1.44C115.72,199.43,133.36,192.36,127.92,178.91Z" style="fill:#263238"></path><path d="M127.55,181.16c-.92-3-2.87-5.5-4.43-8.07a41.42,41.42,0,0,1-4.88-10.39c-1.95-7-.69-14.83-3.12-21.73a0,0,0,1,0-.08,0c2,5.87,1.13,12.48,2.06,18.66.9,6,3.83,10.92,6.82,15.68,1.64,2.62,3.66,5.43,3.63,8.93,0,4.2-2.82,7.88-5.78,10.21-5.08,4-11.39,4.78-17.2,4.84-.19,0-.19.33,0,.33,5.63,0,11.68-.65,16.74-4.22C125.59,192.41,129.27,186.83,127.55,181.16Z" style="fill:#263238"></path><path d="M107.37,184.4c15.43,14.85,33.62,30.24,42.42,29.22,6.85-.79,21.93-10.09,33-18.51,2.77-2.1-15.36-20.29-17.34-18.86-5.05,3.65-19.92,12.31-21,11.85-1.45-.62-18.93-9.1-30.78-14.25C97.7,166.91,99.4,176.72,107.37,184.4Z" style="fill:#f7a9a0"></path><path d="M193.37,188c-3.62,4-14.2,9.31-17.25,9.61s-12.66-17.4-11.39-20.28,14.46-15.42,19.89-16.3S197.11,183.89,193.37,188Z" style="fill:#f7a9a0"></path><path d="M166.6,174.83a44.53,44.53,0,0,0,2.66-12.73c.13-5.19-.26-12.92,2.54-12.95,5.73-.07,6.71,19.2,6.71,19.2s-.94,8.57-6.62,9.14A5.67,5.67,0,0,1,166.6,174.83Z" style="fill:#f7a9a0"></path><path d="M176.54,164.1c.9,2.71,3.08,1.83,3.08,1.83s-4.87,2.66-4.3,5.76,4.87,1.67,5.18,1.58c-.25.14-4.66,2.7-3.77,5.76s5,1.11,5.3,1c-.2.21-2.79,3-1.59,5.21,2.07,3.74,8.9-3.31,12.36-3.22,0,0,.51,5.88.57,6,0,0,6.63-6.57,6.49-11.24a3,3,0,0,0-2.38-2.88s2.37-1.88,1.75-4.32c-.32-1.25-2.61-1.84-2.61-1.84a3.74,3.74,0,0,0,1.15-3.72c-.54-1.7-2.75-2-2.75-2s10.81-6.05,9.55-9.07c-2.17-5.2-24.56,9-26.86,8.09C176.57,160.55,176.15,162.92,176.54,164.1Z" style="fill:#f7a9a0"></path><path d="M194.68,161.89a0,0,0,0,0,0-.08A26.5,26.5,0,0,0,179.42,166c-.14.09-.45.83-.28.73C183.28,164.27,189.22,162.58,194.68,161.89Z" style="fill:#263238"></path><path d="M196.69,167.7c.06,0,.05-.1,0-.1a24.9,24.9,0,0,0-16.37,5.56c-.16.14-.16.42,0,.28C183.59,171,191.77,168.3,196.69,167.7Z" style="fill:#263238"></path><path d="M181.81,180.39c4.54-3.62,9.79-5.43,15.45-6.5.07,0,.05-.12,0-.12-2.91-.23-6.44.83-9.13,1.89a15.27,15.27,0,0,0-6.43,4.57C181.61,180.31,181.71,180.46,181.81,180.39Z" style="fill:#263238"></path><path d="M179.53,165.9c-.17.12.43.31.27.43-1.8,1.32-4.91,3.85-4.16,5.56.6,1.36,2.85,1.51,3.74,1.22l2.23-.72-1.85,1.45a10.15,10.15,0,0,0-2.12,2.27,3.46,3.46,0,0,0-.62,2.73,2,2,0,0,0,1.92,1.56,5.92,5.92,0,0,0,2.86-.8l2.44-1.31-1.87,2a8.86,8.86,0,0,0-1.34,1.87,3.73,3.73,0,0,0-.51,2.08,1.78,1.78,0,0,0,1.13,1.48,3.93,3.93,0,0,0,2.18-.15,30.52,30.52,0,0,0,4.4-1.94c.73-.36,1.46-.72,2.21-1a5.75,5.75,0,0,1,2.36-.62,6.34,6.34,0,0,0-2.26.82c-.71.38-1.41.8-2.11,1.21a25.81,25.81,0,0,1-4.39,2.22,4.65,4.65,0,0,1-2.61.26,2.5,2.5,0,0,1-1.75-2.12,4.52,4.52,0,0,1,.56-2.59,9.53,9.53,0,0,1,1.45-2.11l.58.72a6.83,6.83,0,0,1-3.37,1,2.84,2.84,0,0,1-1.81-.67,3.22,3.22,0,0,1-1-1.62,4.35,4.35,0,0,1,.79-3.46,10.26,10.26,0,0,1,2.37-2.46l.39.73c-1.14.32-3.68.44-4.88-1.56C173.61,169.49,178.58,166.4,179.53,165.9Z" style="fill:#263238"></path><path d="M161.84,176.66l20.24,23.27s-24.37,15.27-33.86,14.57-31.69-18.64-42.5-31.34c-11.06-13-.85-13.95,7.53-9.85s30.67,14.07,31.29,14S161.84,176.66,161.84,176.66Z" style="fill:#FFC727"></path><path d="M165.74,191.21q-2-2.42-4.07-4.82c-1.36-1.59-2.68-3.26-4.15-4.75-.07-.07-.2,0-.14.1,1.14,1.67,2.47,3.24,3.73,4.82s2.67,3.37,4,5c2.67,3.31,5.46,6.5,8.31,9.66.07.08.17,0,.11-.1C171,197.78,168.45,194.45,165.74,191.21Z" style="fill:#263238"></path><path d="M147.46,214.4c-9.86-1.53-31.21-18.87-41.74-31.24-8.41-9.88-4.52-12.8,1.5-11.83Z" style="opacity:0.1"></path><path d="M124.82,213l2.37,15.28-52.3.63S78.42,191.39,91,176.38c6.3-7.51,14.12-7.33,19.31-2.52,1.32,1.21,14.86,17.52,16.79,25C128.8,205.49,124.82,213,124.82,213Z" style="fill:#ebebeb"></path><path d="M104.75,212.21a62.24,62.24,0,0,1,9.16-.16c1.51.11,3,.29,4.52.5.75.1,1.5.18,2.25.26a9.4,9.4,0,0,0,2.37,0c.07,0,.09.1,0,.11a16.83,16.83,0,0,1-2.22.36,17.46,17.46,0,0,1-2.17,0c-1.54-.1-3.07-.26-4.61-.37-3.1-.23-6.2-.45-9.31-.45C104.62,212.46,104.61,212.22,104.75,212.21Z" style="fill:#263238"></path><path d="M97.83,216.2a68.44,68.44,0,0,1,7.37-1.7c1.24-.21,2.49-.35,3.74-.45l1.81-.13c.66,0,1.33,0,2,0,.07,0,.09.1,0,.11-.63.06-1.24.22-1.86.32l-1.86.28c-1.24.2-2.48.41-3.73.59-2.49.37-5,.76-7.44,1.21C97.73,216.43,97.71,216.24,97.83,216.2Z" style="fill:#263238"></path><path d="M98.68,171s5.66,29.26,5.87,35.38.1,40.43.1,40.43L68.32,240s8.85-36.8,15.16-52.16S98.68,171,98.68,171Z" style="fill:#FFC727"></path><path d="M108.37,172.25s12.18,23.8,12.48,29.23,4.48,45.3,4.48,45.3l7.61-2L124.82,213s3.83-6.62,2.72-12.91C126.21,192.63,112,173.42,108.37,172.25Z" style="fill:#FFC727"></path><path d="M108.38,172.27c.37.71,12.17,23.87,12.47,29.21C121,204,122,214.21,123,224.27l.1-28.34-5.18-6.24,2.36-2.48Z" style="opacity:0.1"></path><path d="M99,178.65C96.54,188.4,80.17,222.87,79,224.88c0,0-21.48,16.89-24.35,3.58s22.11-40.26,34.45-51.91C96.74,169.36,100.62,171.89,99,178.65Z" style="fill:#FFC727"></path><path d="M80.79,221c3.84-9.11,10.22-22.58,14.42-31.67A239.51,239.51,0,0,1,80.79,221Z" style="fill:#263238"></path><path d="M94.91,192.61a7.49,7.49,0,0,1-2.39,3.13c.87-1,1.53-2.14,2.39-3.13Z" style="fill:#263238"></path><path d="M99.68,191.19l-2.23,7.08,7.22,28.32c0-8.66,0-17.44-.12-20.25-.22-6-5.71-34.47-5.87-35.35v0l-3.52,17Z" style="opacity:0.1"></path><path d="M99.61,173.6c.32,1,5.6,6.88,10,6.25,1.46-.2.68-8.18.68-8.18l.07-.6,1.08-8.43-10.28-5.31-1.48-.69s-.14,2.32-.29,5.22c0,.14,0,.27,0,.41s0,.32,0,.47c0,.44,0,.88-.07,1.32s0,.66,0,1l0,1.05A55.66,55.66,0,0,0,99.61,173.6Z" style="fill:#f7a9a0"></path><path d="M99.44,161.86a17,17,0,0,0,11,9.21l1.08-8.43-10.28-5.31-1.48-.69S99.59,159,99.44,161.86Z" style="fill:#263238"></path><path d="M99.61,173.6c1,4.06,11.74,21,13.19,20.58s-2.28-17.11-2.28-17.11Z" style="fill:#f7a9a0"></path><path d="M122.16,149.3c2.07,14.76-6.53,17.67-9.72,18.11-2.89.41-12.78,1.41-16.37-13.06s2.62-20.1,9.19-21.37S120.09,134.54,122.16,149.3Z" style="fill:#f7a9a0"></path><path d="M95.72,155.41c2.59,0,2.7-5.49,2.7-5.49s5.25-.45,6.3-8.14a11.67,11.67,0,0,1-1.76,6.44s9.15-1.81,12.35-9.88c0,0-1.2,4.07-2.53,5.6a10.84,10.84,0,0,0,5.39-4.74s2,4.32,3.37,5.44c0,0,.92-17.77-16.64-13.08,0,0-9.33,1.46-12,9.18S95.72,155.41,95.72,155.41Z" style="fill:#263238"></path><path d="M98.58,155.16S95.08,150.68,93,152s.75,7.88,3.28,8.67a2.52,2.52,0,0,0,3.3-1.53Z" style="fill:#f7a9a0"></path><path d="M93.89,153.83s0,0,0,.06a6.37,6.37,0,0,1,3.5,3.81,1.39,1.39,0,0,0-2.1-.27s0,.1,0,.09a1.55,1.55,0,0,1,1.73.45,7.61,7.61,0,0,1,.89,1.34c.09.15.37.05.3-.13l0,0C98.16,156.93,96.27,153.92,93.89,153.83Z" style="fill:#263238"></path><path d="M119.54,146.23a8.93,8.93,0,0,1-1-.08,1.63,1.63,0,0,1-1.06-.28.54.54,0,0,1-.08-.65,1.33,1.33,0,0,1,1.26-.49,2,2,0,0,1,1.32.53A.57.57,0,0,1,119.54,146.23Z" style="fill:#263238"></path><path d="M109.92,149.42c.34-.09.65-.23,1-.35a1.68,1.68,0,0,0,.93-.55.54.54,0,0,0-.08-.66,1.37,1.37,0,0,0-1.36-.13,2,2,0,0,0-1.13.86A.58.58,0,0,0,109.92,149.42Z" style="fill:#263238"></path><path d="M112.05,150.93s-.07.06-.07.1c.2,1,.25,2.21-.62,2.7,0,0,0,.07,0,.06C112.48,153.45,112.4,151.86,112.05,150.93Z" style="fill:#263238"></path><path d="M111,150c-1.67.13-1.27,3.45.27,3.32S112.36,149.89,111,150Z" style="fill:#263238"></path><path d="M110.34,150.26c-.27.22-.51.59-.86.66s-.75-.22-1-.52c0,0-.06,0-.05,0,.07.64.39,1.26,1.08,1.27s1-.6,1.09-1.26C110.57,150.33,110.44,150.17,110.34,150.26Z" style="fill:#263238"></path><path d="M117.78,150s.09,0,.09.08c.08,1,.35,2.2,1.32,2.44a0,0,0,0,1,0,0C118,152.57,117.7,151,117.78,150Z" style="fill:#263238"></path><path d="M118.58,148.85c1.64-.31,2.14,3,.62,3.28S117.21,149.11,118.58,148.85Z" style="fill:#263238"></path><path d="M119.3,149c.29.14.6.42.91.39s.58-.43.76-.8c0,0,0,0,0,0,.12.63,0,1.32-.58,1.53s-1-.28-1.27-.89C119.12,149.1,119.19,148.91,119.3,149Z" style="fill:#263238"></path><path d="M112.4,159.2c.24.25.48.59.85.63a2.55,2.55,0,0,0,1.12-.22s.07,0,0,0a1.39,1.39,0,0,1-1.33.52,1.1,1.1,0,0,1-.79-.94C112.29,159.18,112.37,159.16,112.4,159.2Z" style="fill:#263238"></path><path d="M116.64,155.36s.25,1.53.27,2.26c0,.07-.18.11-.43.13h0a3.47,3.47,0,0,1-3.4-1.21c0-.07,0-.15.11-.11a5.13,5.13,0,0,0,3.18.83c.05-.2-.52-2.62-.4-2.63a6.29,6.29,0,0,1,1.66.34c-.43-3.23-1.37-6.35-1.75-9.57,0-.11.16-.15.19-.05a52.66,52.66,0,0,1,2.33,10.22C118.45,156,116.93,155.47,116.64,155.36Z" style="fill:#263238"></path><path d="M116.4,157.48a4.19,4.19,0,0,1-1.56,1.44,1.89,1.89,0,0,1-1.14.17c-.84-.15-.92-.91-.83-1.57a4.54,4.54,0,0,1,.29-1A5.46,5.46,0,0,0,116.4,157.48Z" style="fill:#263238"></path><path d="M114.84,158.92a1.89,1.89,0,0,1-1.14.17c-.84-.15-.92-.91-.83-1.57A2,2,0,0,1,114.84,158.92Z" style="fill:#ff9abb"></path><polygon points="106.6 243.11 140.83 247.72 153.82 200.13 119.59 195.53 106.6 243.11" style="fill:#263238"></polygon><polygon points="108.28 243.33 142.51 247.94 155.51 200.36 121.27 195.75 108.28 243.33" style="fill:#455a64"></polygon><path d="M136.67,220.33a3.73,3.73,0,0,1-4.07,2.84,3,3,0,0,1-2.59-3.73,3.75,3.75,0,0,1,4.07-2.85A3,3,0,0,1,136.67,220.33Z" style="fill:#fff"></path><path d="M100.8,221.13c3.22.2,5.15,24.14.41,24.3-22.29.75-40.75-9.65-44-12.59-4.31-3.85-2.87-10.93,0-13.37C61.39,215.93,97.24,220.9,100.8,221.13Z" style="fill:#f7a9a0"></path><path d="M98.2,221.31s9.34-2.15,15.47-3.22c3.43-.6,9.39-1.1,12.1-.39,4.07,1.06,20.38,8.11,18.75,12.1-1.47,3.61-14.71-4.22-14.71-4.22s14.06,6.72,11.49,10.75S125,229.51,125,229.51s14.29,7.23,11,11c-2.5,2.82-15.54-6.3-15.54-6.3s12.24,6.3,9.8,9.31c-2.7,3.33-15.27-4.33-15.27-4.33-7.5,6.61-13.77,6.69-18.24,6.21C95.61,245.26,98.2,221.31,98.2,221.31Z" style="fill:#f7a9a0"></path><path d="M124.87,223.26c1.69.68,3.42,1.37,5,2.2s3.24,1.73,4.79,2.71a31.57,31.57,0,0,1,5.65,4.39,67.17,67.17,0,0,0-10.68-6.66c-1.63-.83-3.22-1.75-4.85-2.58C124.79,223.3,124.83,223.24,124.87,223.26Z" style="fill:#263238"></path><path d="M121.72,228.81c2.11,1,4.23,2,6.29,3.09s4.88,2.76,6.85,4c.15.09.07.35-.08.26-2-1.17-5-2.73-7-3.88s-4-2.37-6.08-3.44C121.66,228.85,121.69,228.8,121.72,228.81Z" style="fill:#263238"></path><path d="M117.94,233.22a52.31,52.31,0,0,1,9.43,5.16c.15.1,0,.16-.15.07-3.1-1.78-5.52-3.2-9.32-5.11C117.84,233.31,117.87,233.19,117.94,233.22Z" style="fill:#263238"></path><path d="M93.62,219.53l8.61,29.38c-23.18-2.67-41.77-13.13-45.06-16.07-4.31-3.85-2.87-10.93,0-13.37C61.39,215.93,90.71,218.22,93.62,219.53Z" style="fill:#FFC727"></path><path d="M91.31,232.17c-.61-2-1.22-4-1.85-6s-1.18-4-1.94-6c0-.08-.18-.06-.16,0,.38,2,1,4,1.52,5.9s1.13,4.15,1.72,6.22c1.15,4.09,2.45,8.12,3.82,12.15a.08.08,0,0,0,.15-.05C93.57,240.29,92.52,236.22,91.31,232.17Z" style="fill:#263238"></path><path d="M68.43,217.48a120.91,120.91,0,0,1,24.43,1.72c.22,0,.41.44.29.44-2.23-.09-12.46-1.76-24.65-1.86C68.43,217.78,68.36,217.48,68.43,217.48Z" style="fill:#263238"></path></g><g id="freepik--speech-bubble--inject-8"><path d="M171.26,123.17A22.2,22.2,0,0,1,135.83,141L125,143.77l4.53-10.13a22.2,22.2,0,1,1,41.78-10.47Z" style="fill:#fff"></path><path d="M171.26,123.17c.16,12.84-11.36,23.45-24.14,22.36a22.52,22.52,0,0,1-11.51-4.25l.31.06-10.86,2.86-.88.23.37-.84L129,133.45v.42c-5.13-9.11-2.63-21.43,5.47-28,14.57-12,36.73-1.63,36.74,17.26Zm0,0c.06-14.19-13.82-25-27.53-21.25-13.54,3.37-20.52,19.26-13.83,31.5l.11.21-.09.21L125.35,144l-.51-.6,10.9-2.7.17,0,.13.1a21.82,21.82,0,0,0,11.12,4.35,22.13,22.13,0,0,0,24.1-21.89Z" style="fill:#263238"></path><polygon points="145.46 136.38 135.51 126.31 138.85 123.01 144.66 128.89 156.74 109.96 160.7 112.48 145.46 136.38" style="fill:#FFC727"></polygon></g></svg>
